<?xml version="1.0" encoding="utf-8"?>
<!-- Generator: Adobe Illustrator 25.2.3, SVG Export Plug-In . SVG Version: 6.00 Build 0)  -->
<svg version="1.1" id="Capa_1" xmlns="http://www.w3.org/2000/svg" xmlns:xlink="http://www.w3.org/1999/xlink" x="0px" y="0px"
	 viewBox="0 0 100 100" style="enable-background:new 0 0 100 100;" xml:space="preserve">
<style type="text/css">
	.st0{fill:#058217;}
</style>
<path class="st0" d="M50,0C22.4,0,0,22.4,0,50s22.4,50,50,50s50-22.4,50-50S77.6,0,50,0z M77.5,62.8c-0.2,0.5-0.7,0.8-1.2,0.8
	c-0.2,0-0.4,0-0.6-0.1L49.4,51.2C49,51,48.7,50.5,48.7,50V12.3c0-0.7,0.6-1.3,1.3-1.3s1.3,0.6,1.3,1.3v36.9l25.6,11.9
	C77.5,61.4,77.8,62.2,77.5,62.8z"/>
</svg>
