<?xml version="1.0" encoding="utf-8"?>
<!-- Generator: Adobe Illustrator 25.2.3, SVG Export Plug-In . SVG Version: 6.00 Build 0)  -->
<svg version="1.1" id="Capa_1" xmlns="http://www.w3.org/2000/svg" xmlns:xlink="http://www.w3.org/1999/xlink" x="0px" y="0px"
	 viewBox="0 0 448.3 459.6" style="enable-background:new 0 0 448.3 459.6;" xml:space="preserve">
<style type="text/css">
	.st0{fill:#FFFFFF;}
</style>
<g>
	<path class="st0" d="M446.7,209.4c-1.6-0.4-2.4-1.7-2.4-3.5c0.1-2.3-0.1-4.5,0-6.8c0.1-2.1-0.5-3.7-2.1-5c-1-0.9-2-1.8-1.9-3.3
		c0.1-1.9-0.5-3.4-2.2-4.4c-0.7-0.4-1.3-1.2-1.2-2c0.3-3-1.5-4.7-3.4-6.5c-1.1-1-2-2.3-3.2-3.2c-0.9-0.7-1.5-1.7-1.4-2.8
		c0.2-2-0.8-3.3-2.1-4.6c-1.2-1.1-2.2-2.3-3.4-3.4c-1.3-1.2-2.3-2.4-1.9-4.3c0.2-1.1-0.5-2-1.1-2.5c-1.6-1.4-2.7-3.2-4.4-4.4
		c-1.3-1-1.9-2.1-1.9-3.7c0-1.8-0.8-3.1-2.2-4.2c-1.7-1.3-3.1-3-4.7-4.5c-0.8-0.8-1-1.7-1-2.8c-0.1-2.1-3.9-7.3-5.9-7.5
		c-2.8-0.3-4.9-1.3-6.8-3.5c-3.2-3.6-6.8-6.6-10.1-10.1c-1.1-1.2-2.1-1.9-3.7-1.8c-1.4,0-2.8-0.3-3.7-1.5c-0.8-1.2-1.9-2-2.9-2.9
		c-1.2-1.2-3.8-2.3-3.1-3.9c0.6-1.3,3.3-0.4,5.1-0.2c3.3,0.4,6.6,0.8,8.7-2.7c0.6-1,1.6-1.1,2.7-1.1c3.8,0,7.6,0,11.4,0
		c1.3,0,2.7-0.1,3.4-1.1c2-3,4.8-3,7.9-2.8c1.2,0.1,2.3-0.1,3.5,0c2,0.1,3.7-0.5,5-2.1c0.7-0.9,1.6-1.8,2.9-1.8
		c4.1,0.1,8.3-0.4,12.4,0.3c2.9,0.5,5.7,0.2,7.7-2.3c0.4-0.5,0.9-0.9,1.4-1.3c2.3-1.8,2.3-5.3,0-7.1c-1.3-1-2-2.2-1.9-3.9
		c0.1-1.4-0.5-2.6-1.7-3.3c-1.3-0.8-1.9-2-1.8-3.5c0.1-1.3-0.4-2.5-1.2-3.4c-2.5-2.6-5-5.2-7.6-7.7c-6.3-6.1-12.5-12.2-18.5-18.6
		c-0.5-0.6-1.2-1-1.9-1c-4.3,0.4-6.2-3.1-8.6-5.5c-1.4-1.4-2.8-2.5-4.8-2.5c-1.2,0-2.2-0.3-3-1.4c-1.2-1.8-3-2.7-5.3-2.5
		c-2.2,0.1-4.5,0.4-6.7,0.4c-7.7,0.1-15.3,0-23,0c-2,0-4,0-6.1-0.3c-3-0.5-6-0.2-8,2.7c-0.7,1-1.7,1.3-2.9,1.2
		c-1.7-0.1-3.2,0.6-4.1,2c-0.9,1.4-2.1,2-3.6,1.9c-1.3-0.1-2.4,0.5-3.3,1.4c-0.5,0.5-0.9,1.4-1.8,1.3c-0.4-0.7,0-1.3,0-1.9
		c0-2.6,1-5.4-1.2-7.7c-1-1-2.1-2-3.1-3c-1-1-2.1-1.5-3.5-1.5c-5.8,0-11.7,0-17.5,0c-2.8,0-4.1,1.3-4.1,4.2c0,2,0,4.1,0,6.4
		c-1.2-0.8-1.7-1.6-2.3-2.2c-2-2.1-3.5-4.9-7.1-4.6c-1,0.1-2-0.7-2.8-1.6c-2.2-2.3-4.6-4.3-6.6-6.7c-2.5-3.1-5.6-3.9-9.3-3.3
		c-1.4,0.2-2.5-0.2-3.2-1.3c-1-1.7-2.4-2.3-4.4-2.3c-2.3,0-3.4-1.3-3.4-3.6c0-1.2-0.1-2.5-1.1-3.2c-2.6-1.7-3.1-4.2-2.9-7
		c0.1-1.2-0.5-1.9-1.8-1.9c-3.4,0-6.9,0-10.3,0c-0.8,0-1.6,0.2-1.6,1.1c-0.1,1.7-1.3,2.6-2.3,3.5c-1.2,1-1.8,2.3-1.7,3.8
		c0,1,0,2,0,3.1c0,3.5-0.6,4.1-4,4.2c-1.4,0.1-2.6,0.5-3.3,1.7c-1,1.6-2.3,2.1-4.2,1.9c-2.2-0.2-4.6-0.7-6.6,1.3
		c-4.9,4.9-9.8,9.8-14.7,14.7c-0.8,0.8-1.4,1.7-1.3,2.9c0.2,2-0.8,3.3-2.2,4.5c-2.1,1.8-2.6,7-0.8,9c2.5,2.6,5.1,5.1,7.6,7.7
		c0.7,0.7,1.6,1,2.6,0.9c1.6-0.1,2.8,0.5,3.9,1.7c1,1.1,2.2,2,3.1,3.1c2.1,2.9,5.1,3.6,8.3,3c3.2-0.5,4,1.1,4.1,3.5
		c0.1,1.9,0.8,3.2,2.8,3.5c0.4,0.1,0.9,0,1.3,0c0.8,0.1,1.9,0,1.7,1.1c-0.1,0.8-1.2,0.9-2,0.6c-0.9-0.3-1.9-0.2-2.8-0.2
		c-9.6,0-19.1,0-28.6,0c-1.8,0-3.1-0.5-4.2-2.1c-3-3.8-6.4-7-11.9-5.9c-0.5,0.1-1,0.1-1.5,0c-1.8-0.2-3.3,0.5-3.9,2.1
		c-0.6,1.6-0.3,3.2,1.1,4.4c1.4,1.2,2.9,2.4,4.4,3.6c0.3,0.3,0.8,0.5,0.6,1.1c-0.1,0.5-0.6,0.6-1,0.6c-2.7-0.1-5.5-0.1-8.2-0.2
		c-3.1-0.1-6.4-1.1-8.6,2.1c-0.8,1.2-1.9,1.7-3.3,1.7c-1.8,0-3.3,0.6-4.3,2.1c-0.9,1.4-2.1,1.9-3.7,1.8c-1.5,0-2.7,0.6-3.8,1.8
		c-1.5,1.7-3.2,3.2-4.7,4.8c-0.7,0.7-1.5,0.9-2.4,0.8c-1.7-0.1-2.9,0.5-4.1,1.7c-8.4,8.5-16.9,16.9-25.4,25.4
		c-1.1,1.1-1.8,2.3-1.7,3.8c0.1,1.4-0.5,2.6-1.7,3.4c-1.6,1.1-2.8,7-4.1,7.9c-1.9,1.2-2.8,3.5-4.8,4.7c-0.6,0.4-0.9,1.3-0.8,2.2
		c0.2,2-0.7,3.4-2.1,4.5c-1.4,1.2-1.9,2.6-1.9,4.4c0.3,4.9-0.4,9.7,0.4,14.6c0.1,0.8,0.3,2.1-0.9,2.1c-0.9,0-0.9-1.1-1-1.9
		c0-0.1,0-0.3,0-0.4c-0.2-3.4-4.2-7.5-7.7-7.6c-1.5-0.1-2.5-0.7-3.4-1.9c-1.6-1.9-3.4-3.8-5.3-5.4c-2.1-1.6-3.7-3.6-5.5-5.5
		c-2.9-3.1-6.2-5.8-9-9.1c-0.5-0.6-1.3-0.9-2.2-0.9c-2.7,0-5.4,0-8.1,0c-0.8,0-1.6,0.2-2,0.8c-1.2,1.7-3.1,2.8-4.4,4.5
		c-1.1,1.5-2.3,2.2-4.2,2.1c-9.8-0.1-19.5,0-29.3-0.1c-2.2,0-4,0.6-5.2,2.5c-0.2,0.3-0.5,0.7-0.8,0.8c-3.8,0.2-6.3,2.7-9.3,4.5
		c-1.1,0.7-1.6,1.2-1.6,2.4c0,2.6,0.1,5.3,0,7.9c-0.1,2,0,3.8,2.5,4.2c0.5,0.1,1.1,0.6,1.3,1c1.2,2.3,3.2,2.7,5.6,2.5
		c1.1-0.1,2.2-0.1,3.3,0c1.9,0.1,2.9,1.2,3,3.1c0.1,1.7,0,3.3,0,5c0,1.2,0.3,2.2,1.3,2.9c2.1,1.4,3.5,3.7,5.5,5.2
		c1.2,1,2,2.4,3.4,3.3c0.9,0.6,1.2,1.6,1.2,2.7c0,1.2,0,2.3,0,3.5c-0.1,3.8-0.5,7.4,3.5,10c1.5,1,2.7,2.3,4.7,2.3
		c1.4,0,2.5,0.5,3.3,1.7c1,1.6,2.5,2.3,4.4,2.2c4.2-0.1,8.3,0,12.5,0c3.9,0,8.6-4.5,8.8-8.4c0.1-2.2,1-3,3.1-3c4.4,0,8.7,0,13.1,0.1
		c2.3,0,4.5,0,6.1-2c0.8-1,1.4-0.4,1.4,0.7c0,0.7,0,1.3,0,2c0,24.6,0,49.3,0,73.9c0,2.1,0.4,3.9,2.2,5.2c1.4,1,1.9,2.5,1.8,4.2
		c-0.1,3.6,0,7.1,0,10.7c0,1.1,0,2.2,0.8,2.8c2.9,2,2.8,4.8,2.7,7.8c-0.1,2,0.5,3.7,2.3,4.8c1.2,0.8,1.7,2,1.6,3.4
		c0,1.5,0,2.9,0,4.4c0,1.1,0.3,2.2,1.1,2.7c3,1.7,3,4.4,2.8,7.2c-0.2,2.1,0.4,3.9,2.1,5.2c1.1,0.9,1.5,2,1.4,3.4
		c-0.1,1.2-0.1,2.5,0,3.7c0.1,1.5,0.5,2.9,1.9,3.7c1.6,1,2.1,2.4,2.1,4.3c-0.1,8.6,0,17.2,0,25.8c0,1.3,0,2.6,1.1,3.4
		c2.8,2,3.2,4.8,2.9,7.9c-0.2,1.9,0.3,3.4,2,4.5c1.1,0.7,1.9,1.9,1.8,3.1c-0.1,2.5,1.3,4,2.9,5.6c1.2,1.1,2.2,2.3,3.4,3.4
		c0.9,0.8,1.3,1.7,1.2,2.9c-0.2,1.8,0.6,3.2,2.2,4.2c0.9,0.6,1.9,1.4,1.4,2.9c-0.5,1.3-1.5,1.9-2.9,1.8c-1.5-0.1-3.2,0.3-3.9,1.5
		c-1.6,2.5-3.8,2.6-6.3,2.4c-2.5-0.2-4.6,0.4-6.2,2.4c-0.9,1.2-2.1,1.5-3.7,1.2c-2.4-0.4-5-0.6-6.8,1.5c-1.4,1.6-3.1,2.2-5.1,2.4
		c-1.9,0.2-2.8,1.3-2.9,3.2c-0.1,2.3,1.6,4,4.1,4c2.5,0,5.1-0.4,7.6-0.4c10.6,0,21.1,0,31.7,0c2,0,3.7-0.5,4.9-2.3
		c0.8-1.2,2.1-1.7,3.6-1.7c3.5,0.1,7,0,10.5,0c2,0,4.1-0.2,4.6-2.2c0.6-2.3,1.1-5.1-0.5-7.2c-1.2-1.5-2.6-2.9-4.1-4.2
		c-3.3-2.8-6.1-6.2-9.3-9.1c-0.8-0.7-1.1-1.7-1.1-2.7c0-1.2,0-2.5,0-3.7c0.1-1.8-0.4-3.3-2-4.3c-1-0.6-1.5-1.6-1.5-2.8
		c0-2.3,0-4.5,0-6.8c0-0.9,0.2-1.6,0.9-2.1c1.7-1.5,3-3.2,2.6-5.6c-0.1-0.4,0-0.9,0.5-1.1c0.5-0.3,0.8,0.1,1.1,0.4
		c1.1,1.1,2.3,2.1,3.2,3.3c1.2,1.7,2.8,2.5,4.8,2.5c1.2,0,2.2,0.3,3,1.5c0.9,1.3,2.1,2.1,3.9,2.1c1.7,0,3.1,0.8,4.1,2.1
		c0.9,1.3,2.1,1.9,3.7,1.8c1.2-0.1,2.3,0,3.5,0c1.8-0.1,3.2,0.4,4.2,2.1c0.8,1.3,2.1,1.9,3.7,1.9c12.2,0,24.3,0,36.5,0
		c1.5,0,2.8-0.4,3.6-1.7c1.2-2,2.8-2.5,5-2.3c1.4,0.1,2.8,0.1,4.2,0c1.8-0.1,3,0.7,4.1,2.1c1.3,1.7,3,3.1,4.5,4.6
		c2.1,1.9,4.9,1.4,7.5,1c4-0.7,9.6,2.2,10.1,6c0.5,3.5,2.5,5.7,4.8,7.9c0.8,0.8,1.7,1.3,2.9,1.2c1.6-0.1,3.1,0.3,4,1.8
		c1,1.8,2.6,2.1,4.4,2.2c2.8,0.1,5.2-0.2,6.7-3c0.2-0.3,0.5-0.6,0.8-0.7c1.9-1,2.2-2.6,2.2-4.6c0-7.4,0-14.9,0-22.3
		c0-2.5,0.8-3.5,3.1-3.5c9.8,0,19.5,0,29.3,0c1,0,1.9,0.2,2.5,1c2,2.6,4.4,4.6,6.7,6.9c0.9,0.9,1.5,1.9,1.4,3.3
		c-0.1,1.5,0.3,2.8,1.7,3.6c1.7,1,2.3,2.6,2.3,4.4c0,1.2,0.2,2.3,1.3,3.1c1.9,1.3,3.2,3.3,5,4.8c0.8,0.6,1.2,1.5,1.1,2.5
		c-0.2,2,0.8,3.5,2.2,4.7c1,0.9,1.8,1.9,1.7,3.4c-0.1,1.8,0.7,3.1,2.2,4.2c2.2,1.7,1.4,4.3,1.2,6.5c-0.2,2-2.2,1.9-3.6,2
		c-1.6,0.1-2.7,0.6-3.6,2c-0.8,1.2-1.9,1.8-3.5,1.3c-1.4-0.4-2.9-0.3-4.3-0.1c-2,0.2-3.1,1.7-3.1,4c0,2,0.9,3,2.9,3.3
		c1.9,0.2,3.7,0.5,4.8,2.4c0.6,1,1.9,1.4,3.1,1.4c1.4,0,2.8,0.1,4.1-0.1c1.5-0.2,2.6,0.1,3.5,1.5c0.8,1.3,2,2.2,3.6,2.1
		c1.7-0.1,3,0.6,4,1.8c1.2,1.5,2.7,2.3,4.7,2.2c1.5-0.1,2.7,0.6,2.8,2.4c0.1,1.1,0.8,1.5,1.8,1.5c2.3,0,4.5,0,6.8,0
		c1,0,1.6-0.4,1.8-1.5c0.3-1.8,1.5-2.5,3.3-2.5c1.9,0,3.4-0.6,4.4-2.2c0.7-1,1.7-1.7,2.9-1.7c2.2,0.2,3.7-0.8,5.1-2.4
		c0.9-1.1,1.9-1.5,3.4-1.2c3,0.5,6,0.2,8.1-2.5c0.9-1.1,2.3-1.1,3.6-1.3c2.5-0.4,3.3-1.2,3.3-3.5c0-2.3-0.9-3.2-3.3-3.4
		c-1.3-0.1-2.5-0.2-3.4-1.2c-2.5-3-5.7-3-9.2-2.4c-2.6,0.4-5.4,0.7-7.1-2c-0.8-1.4-2-1.8-3.5-1.7c-3,0-6,0-9,0c-0.4,0-1,0-1.1-0.5
		c-0.2-0.5,0.3-0.8,0.6-1c1.4-0.9,1.8-2.2,1.8-3.7c0-13.5,0-27,0-40.5c0-1.5-0.3-2.7-1.7-3.5c-1.2-0.8-1.9-1.8-1.9-3.5
		c0.1-1.6-0.6-3-2-3.9c-1.1-0.7-1-1.4,0-2.2c2.1-1.6,3.8-3.5,5.7-5.3c2.5-2.4,4.3-5.8,8.6-5.6c0.5,0,1.1-0.4,1.5-0.7
		c1.6-1.5,3.3-2.9,4.6-4.7c1.1-1.5,2.5-2.2,4.2-2.1c1.7,0.1,3-0.7,3.9-2c0.6-0.9,1.5-1.4,2.1-2.1c1.6-1.9,3.7-3.5,5.4-5.3
		c1.9-2,3.7-4,5.8-5.8c1.1-1,1.7-2,1.8-3.5c0.1-2.8,1.1-3.8,3.8-3.9c2.5-0.1,4-1.1,3.9-3.4c0-2.4,1.2-3.7,2.7-5.1
		c1.2-1.1,2.3-2.3,3.4-3.4c0.9-0.9,1.5-1.9,1.4-3.3c-0.2-1.7,0.6-3,1.9-3.9c1.5-1.1,2.2-2.5,2-4.3c-0.1-1.5,0.6-2.4,1.8-3.2
		c1.9-1.3,3-3.5,4.9-4.9c0.7-0.5,0.9-1.5,0.8-2.4c-0.2-1.6,0.4-2.8,1.7-3.8c1.6-1.3,2.6-2.9,2.3-5.1c-0.1-0.8,0.2-1.5,0.8-1.9
		c2.7-1.7,2.9-4.3,2.7-7.1c-0.1-1.4,0.1-2.9,0-4.4c-0.2-1.9,0.5-3.4,2-4.6c1.5-1.1,2-2.6,2-4.4c-0.1-5,0-9.9,0-14.9
		c0-1.7,0.5-3.1,2.4-3.4c1.3-0.2,1.6-1,1.6-2.2c0-10.9,0-21.9,0-32.8C448.3,210.5,448,209.8,446.7,209.4z"/>
	<g id="XMj2Ng_1_">
		<g>
			<path d="M297.1,37.8c0-2.4,0-4.4,0-6.4c0-2.9,1.3-4.2,4.1-4.2c5.8,0,11.7,0,17.5,0c1.4,0,2.5,0.5,3.5,1.5c1,1,2.1,2,3.1,3
				c2.2,2.3,1.3,5.1,1.2,7.7c0,0.6-0.5,1.2,0,1.9c0.9,0,1.3-0.8,1.8-1.3c0.9-0.9,2-1.5,3.3-1.4c1.6,0.1,2.8-0.5,3.6-1.9
				c0.9-1.5,2.3-2.2,4.1-2c1.2,0.1,2.2-0.2,2.9-1.2c2-2.8,5-3.2,8-2.7c2,0.3,4.1,0.3,6.1,0.3c7.7,0,15.3,0,23,0
				c2.2,0,4.5-0.3,6.7-0.4c2.2-0.1,4,0.7,5.3,2.5c0.8,1.1,1.8,1.4,3,1.4c2,0,3.4,1,4.8,2.5c2.4,2.4,4.3,5.8,8.6,5.5
				c0.7-0.1,1.4,0.4,1.9,1c6,6.4,12.2,12.5,18.5,18.6c2.6,2.5,5.1,5.2,7.6,7.7c0.9,0.9,1.3,2.1,1.2,3.4c-0.1,1.5,0.5,2.7,1.8,3.5
				c1.2,0.7,1.8,1.9,1.7,3.3c-0.1,1.7,0.6,2.9,1.9,3.9c2.3,1.8,2.3,5.2,0,7.1c-0.5,0.4-1,0.8-1.4,1.3c-2.1,2.5-4.8,2.8-7.7,2.3
				c-4.1-0.7-8.3-0.2-12.4-0.3c-1.3,0-2.2,0.8-2.9,1.8c-1.3,1.7-2.9,2.3-5,2.1c-1.2-0.1-2.3,0-3.5,0c-3-0.2-5.9-0.2-7.9,2.8
				c-0.7,1-2.1,1.1-3.4,1.1c-3.8,0-7.6,0-11.4,0c-1.1,0-2.1,0.1-2.7,1.1c-2.1,3.5-5.5,3.1-8.7,2.7c-1.8-0.2-4.5-1-5.1,0.2
				c-0.8,1.6,1.9,2.7,3.1,3.9c1,1,2.1,1.8,2.9,2.9c0.9,1.2,2.3,1.5,3.7,1.5c1.6,0,2.6,0.7,3.7,1.8c3.3,3.5,6.9,6.6,10.1,10.1
				c1.9,2.2,4,3.2,6.8,3.5c2,0.2,5.8,5.5,5.9,7.5c0,1.1,0.3,2,1,2.8c1.5,1.5,3,3.2,4.7,4.5c1.4,1.1,2.2,2.5,2.2,4.2
				c0,1.6,0.5,2.7,1.9,3.7c1.7,1.2,2.8,3.1,4.4,4.4c0.7,0.5,1.3,1.5,1.1,2.5c-0.3,1.9,0.6,3.2,1.9,4.3c1.2,1.1,2.2,2.3,3.4,3.4
				c1.3,1.2,2.3,2.6,2.1,4.6c-0.1,1.2,0.5,2.1,1.4,2.8c1.2,0.9,2.1,2.2,3.2,3.2c1.9,1.8,3.7,3.5,3.4,6.5c-0.1,0.8,0.5,1.6,1.2,2
				c1.8,1,2.3,2.5,2.2,4.4c-0.1,1.5,0.9,2.4,1.9,3.3c1.6,1.3,2.2,3,2.1,5c-0.1,2.3,0,4.5,0,6.8c-0.1,1.8,0.8,3,2.4,3.5
				c1.3,0.4,1.6,1.1,1.6,2.2c0,10.9,0,21.9,0,32.8c0,1.1-0.3,1.9-1.6,2.2c-1.8,0.3-2.4,1.7-2.4,3.4c0,5,0,9.9,0,14.9
				c0,1.8-0.5,3.3-2,4.4c-1.5,1.1-2.2,2.6-2,4.6c0.1,1.4-0.1,2.9,0,4.4c0.2,2.8,0,5.4-2.7,7.1c-0.6,0.4-0.9,1.1-0.8,1.9
				c0.3,2.2-0.7,3.8-2.3,5.1c-1.2,1-1.9,2.2-1.7,3.8c0.1,0.9-0.1,1.9-0.8,2.4c-1.9,1.4-3,3.5-4.9,4.9c-1.2,0.8-1.9,1.7-1.8,3.2
				c0.1,1.8-0.5,3.2-2,4.3c-1.3,1-2.1,2.2-1.9,3.9c0.1,1.3-0.5,2.4-1.4,3.3c-1.1,1.1-2.2,2.3-3.4,3.4c-1.5,1.4-2.7,2.8-2.7,5.1
				c0,2.3-1.5,3.3-3.9,3.4c-2.7,0.1-3.7,1.1-3.8,3.9c0,1.5-0.6,2.5-1.8,3.5c-2,1.8-3.9,3.8-5.8,5.8c-1.7,1.9-3.8,3.4-5.4,5.3
				c-0.6,0.7-1.5,1.3-2.1,2.1c-0.9,1.3-2.2,2.1-3.9,2c-1.8-0.1-3.1,0.6-4.2,2.1c-1.3,1.7-3,3.2-4.6,4.7c-0.4,0.4-1,0.8-1.5,0.7
				c-4.2-0.2-6.1,3.2-8.6,5.6c-1.9,1.8-3.6,3.7-5.7,5.3c-1,0.8-1.2,1.4,0,2.2c1.4,0.9,2.1,2.3,2,3.9c-0.1,1.6,0.6,2.7,1.9,3.5
				c1.4,0.8,1.7,2.1,1.7,3.5c0,13.5,0,27,0,40.5c0,1.6-0.4,2.9-1.8,3.7c-0.4,0.2-0.8,0.5-0.6,1c0.2,0.5,0.7,0.5,1.1,0.5c3,0,6,0,9,0
				c1.5,0,2.6,0.4,3.5,1.7c1.7,2.7,4.5,2.5,7.1,2c3.5-0.6,6.6-0.6,9.2,2.4c0.8,1,2.1,1.1,3.4,1.2c2.4,0.2,3.3,1.1,3.3,3.4
				c0,2.3-0.8,3.1-3.3,3.5c-1.3,0.2-2.7,0.2-3.6,1.3c-2.2,2.7-5.1,3-8.1,2.5c-1.6-0.3-2.6,0.2-3.4,1.2c-1.3,1.6-2.9,2.6-5.1,2.4
				c-1.3-0.1-2.3,0.7-2.9,1.7c-1.1,1.6-2.6,2.3-4.4,2.2c-1.8,0-3,0.7-3.3,2.5c-0.2,1.1-0.8,1.5-1.8,1.5c-2.3,0-4.5,0-6.8,0
				c-1,0-1.7-0.4-1.8-1.5c-0.1-1.7-1.3-2.5-2.8-2.4c-2,0.1-3.5-0.8-4.7-2.2c-1.1-1.2-2.3-1.9-4-1.8c-1.6,0.1-2.8-0.8-3.6-2.1
				c-0.9-1.4-2-1.7-3.5-1.5c-1.4,0.2-2.8,0.1-4.1,0.1c-1.2,0-2.5-0.5-3.1-1.4c-1.2-1.9-3-2.2-4.8-2.4c-2.1-0.2-2.9-1.3-2.9-3.3
				c0-2.3,1-3.8,3.1-4c1.4-0.1,3-0.2,4.3,0.1c1.7,0.5,2.7-0.1,3.5-1.3c0.9-1.4,2-1.9,3.6-2c1.4-0.1,3.4,0,3.6-2
				c0.2-2.2,1.1-4.8-1.2-6.5c-1.5-1.1-2.3-2.4-2.2-4.2c0.1-1.5-0.7-2.5-1.7-3.4c-1.4-1.3-2.4-2.7-2.2-4.7c0.1-1-0.4-1.9-1.1-2.5
				c-1.8-1.5-3.1-3.5-5-4.8c-1.1-0.7-1.3-1.9-1.3-3.1c0-1.8-0.5-3.4-2.3-4.4c-1.3-0.8-1.8-2.1-1.7-3.6c0.1-1.4-0.4-2.3-1.4-3.3
				c-2.2-2.3-4.7-4.3-6.7-6.9c-0.6-0.8-1.5-1-2.5-1c-9.8,0-19.5,0-29.3,0c-2.3,0-3.1,1-3.1,3.5c0,7.4,0,14.9,0,22.3
				c0,2-0.3,3.6-2.2,4.6c-0.3,0.2-0.6,0.4-0.8,0.7c-1.4,2.8-3.9,3.1-6.7,3c-1.9-0.1-3.4-0.4-4.4-2.2c-0.9-1.5-2.4-1.8-4-1.8
				c-1.2,0-2-0.4-2.9-1.2c-2.3-2.2-4.4-4.3-4.8-7.9c-0.5-3.9-6.1-6.7-10.1-6c-2.6,0.5-5.4,1-7.5-1c-1.6-1.5-3.2-2.9-4.5-4.6
				c-1.1-1.4-2.3-2.2-4.1-2.1c-1.4,0.1-2.8,0.1-4.2,0c-2.1-0.2-3.8,0.3-5,2.3c-0.8,1.3-2.1,1.7-3.6,1.7c-12.2,0-24.3,0-36.5,0
				c-1.6,0-2.9-0.6-3.7-1.9c-1-1.7-2.4-2.2-4.2-2.1c-1.2,0.1-2.3,0-3.5,0c-1.6,0.1-2.8-0.5-3.7-1.8c-1-1.4-2.4-2.2-4.1-2.1
				c-1.7,0-3-0.7-3.9-2.1c-0.7-1.1-1.7-1.5-3-1.5c-2,0-3.6-0.8-4.8-2.5c-0.9-1.2-2.1-2.2-3.2-3.3c-0.3-0.3-0.6-0.7-1.1-0.4
				c-0.4,0.2-0.5,0.7-0.5,1.1c0.4,2.5-0.9,4.2-2.6,5.6c-0.7,0.6-0.9,1.3-0.9,2.1c0,2.3,0,4.5,0,6.8c0,1.2,0.5,2.2,1.5,2.8
				c1.7,1,2.1,2.5,2,4.3c-0.1,1.2,0,2.5,0,3.7c0,1.1,0.3,2,1.1,2.7c3.2,2.9,6,6.2,9.3,9.1c1.5,1.3,2.9,2.7,4.1,4.2
				c1.6,2,1.1,4.8,0.5,7.2c-0.5,2-2.6,2.2-4.6,2.2c-3.5-0.1-7,0-10.5,0c-1.5,0-2.8,0.4-3.6,1.7c-1.2,1.8-2.8,2.3-4.9,2.3
				c-10.6,0-21.1,0-31.7,0c-2.5,0-5.1,0.4-7.6,0.4c-2.6,0-4.2-1.7-4.1-4c0-1.9,0.9-3,2.9-3.2c2-0.2,3.7-0.8,5.1-2.4
				c1.8-2,4.4-1.8,6.8-1.5c1.6,0.3,2.7,0,3.7-1.2c1.6-2,3.7-2.7,6.2-2.4c2.4,0.2,4.7,0.1,6.3-2.4c0.7-1.2,2.4-1.6,3.9-1.5
				c1.4,0.1,2.4-0.5,2.9-1.8c0.6-1.4-0.4-2.3-1.4-2.9c-1.6-1-2.4-2.3-2.2-4.2c0.1-1.2-0.3-2.1-1.2-2.9c-1.2-1.1-2.2-2.3-3.4-3.4
				c-1.6-1.5-3-3.1-2.9-5.6c0.1-1.2-0.7-2.4-1.8-3.1c-1.7-1.1-2.2-2.6-2-4.5c0.3-3.1-0.1-5.9-2.9-7.9c-1.1-0.8-1.1-2.1-1.1-3.4
				c0-8.6,0-17.2,0-25.8c0-1.9-0.5-3.2-2.1-4.3c-1.3-0.9-1.8-2.2-1.9-3.7c0-1.2-0.1-2.5,0-3.7c0.1-1.4-0.3-2.6-1.4-3.4
				c-1.7-1.3-2.3-3.1-2.1-5.2c0.2-2.8,0.2-5.5-2.8-7.2c-0.9-0.5-1.2-1.6-1.1-2.7c0-1.5,0-2.9,0-4.4c0-1.4-0.5-2.6-1.6-3.4
				c-1.8-1.2-2.4-2.8-2.3-4.8c0.2-3,0.2-5.8-2.7-7.8c-0.9-0.6-0.9-1.8-0.8-2.8c0-3.6-0.1-7.1,0-10.7c0-1.7-0.4-3.2-1.8-4.2
				c-1.8-1.3-2.2-3.1-2.2-5.2c0-24.6,0-49.3,0-73.9c0-0.7,0-1.3,0-2c0-1.1-0.6-1.7-1.4-0.7c-1.7,2-3.8,2.1-6.1,2
				c-4.4-0.1-8.7-0.1-13.1-0.1c-2.1,0-3,0.8-3.1,3c-0.2,3.9-4.9,8.4-8.8,8.4c-4.2,0-8.3-0.1-12.5,0c-1.9,0-3.4-0.6-4.4-2.2
				c-0.8-1.2-1.9-1.8-3.3-1.7c-2,0-3.1-1.3-4.7-2.3c-3.9-2.6-3.6-6.3-3.5-10c0-1.2,0-2.3,0-3.5c0-1.1-0.4-2.1-1.2-2.7
				c-1.3-0.9-2.1-2.4-3.4-3.3c-2-1.6-3.3-3.8-5.5-5.2c-0.9-0.6-1.3-1.7-1.3-2.9c0-1.7,0.1-3.4,0-5c-0.1-1.9-1.1-2.9-3-3.1
				c-1.1-0.1-2.2-0.1-3.3,0c-2.3,0.2-4.3-0.2-5.6-2.5c-0.3-0.5-0.8-1-1.3-1c-2.6-0.4-2.6-2.1-2.5-4.2c0.1-2.6,0-5.2,0-7.9
				c0-1.2,0.5-1.7,1.6-2.4c3-1.8,5.5-4.3,9.3-4.5c0.3,0,0.6-0.5,0.8-0.8c1.2-2,3-2.5,5.2-2.5c9.8,0,19.5,0,29.3,0.1
				c1.9,0,3.1-0.7,4.2-2.1c1.2-1.7,3.1-2.8,4.4-4.5c0.4-0.6,1.2-0.8,2-0.8c2.7,0,5.4,0,8.1,0c0.8,0,1.6,0.3,2.2,0.9
				c2.7,3.3,6,6,9,9.1c1.8,1.9,3.5,3.9,5.5,5.5c2,1.6,3.7,3.4,5.3,5.4c1,1.2,1.9,1.8,3.4,1.9c3.5,0.1,7.5,4.2,7.7,7.6
				c0,0.1,0,0.3,0,0.4c0.1,0.8,0.1,2,1,1.9c1.1-0.1,1-1.3,0.9-2.1c-0.8-4.9-0.2-9.7-0.4-14.6c-0.1-1.8,0.5-3.3,1.9-4.4
				c1.4-1.2,2.3-2.6,2.1-4.5c-0.1-0.8,0.2-1.8,0.8-2.2c1.9-1.3,2.9-3.5,4.8-4.7c1.3-0.9,2.5-6.8,4.1-7.9c1.1-0.8,1.8-1.9,1.7-3.4
				c-0.1-1.6,0.6-2.8,1.7-3.8c8.5-8.4,16.9-16.9,25.4-25.4c1.2-1.2,2.4-1.8,4.1-1.7c0.9,0.1,1.7-0.1,2.4-0.8
				c1.5-1.6,3.2-3.1,4.7-4.8c1-1.2,2.2-1.9,3.8-1.8c1.6,0,2.8-0.4,3.7-1.8c1-1.5,2.5-2.1,4.3-2.1c1.4,0,2.5-0.4,3.3-1.7
				c2.2-3.2,5.5-2.2,8.6-2.1c2.7,0.1,5.5,0.2,8.2,0.2c0.4,0,0.9-0.1,1-0.6c0.1-0.5-0.3-0.8-0.6-1.1c-1.4-1.2-2.9-2.4-4.4-3.6
				c-1.3-1.2-1.7-2.8-1.1-4.4c0.6-1.7,2.1-2.3,3.9-2.1c0.5,0.1,1,0.1,1.5,0c5.5-1.2,8.9,2,11.9,5.9c1.2,1.5,2.4,2.1,4.2,2.1
				c9.5,0,19.1,0,28.6,0c0.9,0,1.9-0.1,2.8,0.2c0.8,0.3,1.9,0.2,2-0.6c0.2-1.1-1-1-1.7-1.1c-0.4,0-0.9,0-1.3,0
				c-2.1-0.3-2.7-1.6-2.8-3.5c-0.1-2.5-0.9-4-4.1-3.5c-3.3,0.5-6.2-0.2-8.3-3c-0.9-1.2-2.1-2.1-3.1-3.1c-1.1-1.1-2.3-1.8-3.9-1.7
				c-1,0.1-1.9-0.2-2.6-0.9c-2.6-2.5-5.2-5-7.6-7.7c-1.9-2-1.4-7.2,0.8-9c1.4-1.2,2.4-2.5,2.2-4.5c-0.1-1.2,0.5-2.1,1.3-2.9
				c4.9-4.9,9.8-9.8,14.7-14.7c2-2,4.4-1.4,6.6-1.3c1.9,0.1,3.2-0.3,4.2-1.9c0.7-1.2,1.9-1.6,3.3-1.7c3.4-0.1,4-0.8,4-4.2
				c0-1,0-2,0-3.1c0-1.6,0.5-2.8,1.7-3.8c1.1-0.9,2.3-1.8,2.3-3.5c0-0.9,0.9-1.1,1.6-1.1c3.4,0,6.9,0,10.3,0c1.3,0,1.9,0.7,1.8,1.9
				c-0.2,2.8,0.3,5.3,2.9,7c1,0.7,1.1,2,1.1,3.2c0,2.3,1.1,3.6,3.4,3.6c1.9,0,3.3,0.6,4.4,2.3c0.7,1.1,1.8,1.6,3.2,1.3
				c3.7-0.7,6.8,0.2,9.3,3.3c1.9,2.4,4.4,4.4,6.6,6.7c0.8,0.8,1.7,1.6,2.8,1.6c3.6-0.3,5.1,2.6,7.1,4.6
				C295.4,36.2,295.9,37,297.1,37.8z M306.3,375.8c0.1-0.2,0.1-0.4,0.2-0.6c-2.7-2.1-5.4-4.3-8.2-6.4c-2.7-2-2.9-5.8-0.3-7.9
				c2.6-2.1,5.4-3.9,7.2-6.8c0.7-1.1,2.1-1.6,3.5-1.5c1.9,0.1,3.4-0.7,4.6-2c1-1.1,2.2-1.6,3.7-1.5c2.4,0.1,4.8,0.4,7.2,0.4
				c5.8,0.1,11.7,0,17.5,0c1.4,0,2.6,0.3,3.6,1.3c3.5,3.6,6.8,7.3,10.5,10.8c1.5,1.4,2.2,2.1,3.7,0.2c0.5-0.7,1.5-0.8,2.4-0.9
				c1.2-0.2,2.3-0.5,3.2-1.2c5.4-4.5,10.2-9.6,15-14.7c1.7-1.8,3.3-3.2,5.7-3.6c1.7-0.3,2.5-1.1,2.3-2.8c-0.2-1.7,0.6-2.8,1.9-3.7
				c1-0.7,1.8-1.5,2.6-2.3c4.7-4.7,9.4-9.4,14.1-14.1c2.8-2.8,5.2-5.5,4.2-10c-0.4-1.9,0.4-3.7,2.2-4.9c1.2-0.8,1.8-2.1,1.7-3.6
				c-0.1-1.3,0.4-2.4,1.4-3.3c1.5-1.4,2.9-2.9,2.7-5.2c-0.1-0.9,0.6-1.6,1.3-2.2c1.2-1.2,2.4-2.6,3.7-3.7c2.4-1.9,2.6-4.2,2.1-7
				c-0.7-3.7-0.5-7.3,2.9-9.9c1.3-0.9,1.2-2.2,1.1-3.7c-0.3-4.2-1.4-8.7,3-11.7c0.9-0.6,1.1-1.6,0.9-2.9c-0.3-2.2-0.9-4.8,1-6.4
				c2.6-2.1,3-4.4,2.8-7.5c-0.3-5.8-0.1-11.7-0.1-17.5c0-1.1-0.1-2.1-1.2-2.6c-2.5-1-3-2.9-2.8-5.3c0.1-1.2,0-2.3,0-3.5
				c0-1-0.2-2.1-1-2.5c-3.3-1.7-3.3-4.7-2.8-7.5c0.6-3.2-1.3-4.8-3.3-6.5c-0.1-0.1-0.3-0.1-0.4-0.2c-1.9-1.8-4.4-3.3-3.9-6.6
				c0.1-0.9-0.5-1.9-1.4-2.4c-1.4-0.8-1.9-2-2.2-3.6c-0.3-1.7-0.5-3.6-2.1-4.6c-1.7-1.1-2.3-2.5-2.2-4.4c0-0.5,0-1.3-0.2-1.5
				c-2.7-1.9-3.2-4.8-4-7.7c-0.1-0.4-0.4-0.8-0.7-1.1c-1.5-1.4-2.7-3-4.4-4.2c-0.8-0.5-1.7-1.2-1.5-2.2c0.4-3.2-1.6-5.1-3.5-7.1
				c-3-3-5.9-6.2-9.1-9c-2.2-1.9-4-4.8-7.6-4.4c-0.8,0.1-1.3-0.8-1.9-1.4c-4-4-8-7.9-11.9-11.9c-1-1.1-2.1-1.7-3.6-1.5
				c-1.4,0.2-2.5-0.3-3.4-1.5c-1.3-1.7-2.9-2.6-5.1-2.4c-1.2,0.1-2.2-0.4-2.9-1.5c-1.9-2.6-5.5-2.8-7.9-0.6
				c-1.9,1.8-4.1,2.9-6.7,2.4c-2.7-0.5-5.4-0.2-8-0.4c-1.8-0.1-3.2,0.4-4.5,1.8c-1.4,1.6-3.1,2.3-5.2,2.2c-3.1-0.2-6.2,0.2-9.4-0.4
				c-0.8-0.2-1.8-0.3-2.8,0.4c1,1.3,2,2.4,3.4,3.1c1.8,0.9,2.9,2.2,2.5,4.4c-0.3,1.8,0.5,3.1,2,4c0.8,0.5,1.5,1.3,1.4,2.1
				c-0.3,3.4,1.6,5.7,4,7.3c3.9,2.6,4.4,6.2,4,10.3c0,0.5,0,1-0.2,1.5c-0.6,1.7-0.2,3.2,1.1,4.1c3.7,2.6,3.3,6.4,2.8,10.1
				c-0.3,2.5,0.2,4.5,2,6.1c1.6,1.4,2.2,3.1,2.2,5.2c0,11,0,21.9,0,32.9c0,0.9-0.2,1.7-0.2,2.6c-0.3,3.9-0.4,7.9,0,11.8
				c0.3,3.1,0.5,6.3,0.1,9.4c-0.5,3.5-0.4,6.9,0,10.3c0.4,2.8,0.6,5.7-2.2,7.7c-1,0.7-1.2,1.9-1.2,3.1c0,3.6-0.1,7.3,0,10.9
				c0.1,2-0.5,3.6-2,4.8c-1.8,1.4-2.3,3.5-2.4,5.6c-0.1,2,0,3.9,0,5.9c0,1.2-0.3,2.3-1.4,3c-1.7,1.1-2.3,2.8-2.5,4.6
				c-0.1,1.4-0.6,2.5-1.7,3.4c-1.4,1-2,2.4-1.8,4.2c0.1,1,0,2,0,3.1c0.1,1.8-0.5,3.2-2.1,4.2c-1.2,0.7-1.9,1.8-1.8,3.3
				c0.2,2.2-1,3.7-2.7,4.9c-2.6,1.9-4.6,4.2-4.9,7.6c-0.1,1.1-0.8,2.1-1.8,2.9c-1.2,0.9-2.3,1.8-3.1,3c-1,1.4-2.9,2.5-2.8,4.5
				c0.1,2.2-1,3.5-2.6,4.9c-2.2,1.9-4.9,3.7-4.9,7.3c0,3.6-0.1,3.7-3.7,3.8c-2.4,0.1-3.5,1-3.8,3.3c-0.2,1.3-0.6,2.4-1.6,3.2
				c-4.4,3.5-8.1,7.7-11.9,11.9c-1.7,1.9-1.9,2.5,0,4.3c1.3,1.3,2.2,2.6,2.2,4.5c0,2,1,3.1,3.3,3.1c5.2-0.2,10.5-0.2,15.7,0
				C297.7,376,301.9,374.8,306.3,375.8z M281.5,317.9c1.7-1.3,0.8-2.7,0.5-3.9c-0.5-2.1-0.2-4.1,1.4-5.4c1.8-1.3,2.8-3.3,4.7-4.5
				c0.8-0.6,1.3-1.6,1.5-2.6c0.8-4.4,4.2-7.5,5.6-11.7c0.7-2,2.6-3.3,4.2-4.7c1.2-1.1,1.8-2.4,1.7-4.1c-0.1-2.3,0-4.7,0-7
				c0-1.2,0.2-2.4,1.2-3.1c3-2.2,3.6-5.1,3.2-8.5c-0.2-1.6,0-3.2,0-4.8c-0.1-2.9,0-5.7,2.4-7.8c0.3-0.3,0.6-0.8,0.5-1.2
				c-0.2-4,1-7.9,0.3-11.9c-0.6-3.4-0.7-6.9,2.5-9.4c1.1-0.9,1.3-2.2,1.3-3.6c0-6.4-0.1-12.8,0-19.2c0-1.9-0.5-3.2-2.1-4.2
				c-1.2-0.7-1.9-1.8-1.8-3.2c0.1-4.7-0.9-9.3-0.4-13.9c0.3-2.6-0.1-4.9-2.4-6.5c-0.7-0.5-0.7-1.4-0.8-2.2c-0.1-1.4-0.3-2.9-1.4-3.8
				c-2.6-2.2-3.3-5-2.9-8.2c0.2-1.9-0.6-3.3-1.9-4.6c-2.5-2.4-5.8-4.3-5.4-8.5c0-0.1,0-0.2-0.1-0.2c-2.7-2.4-3.4-5.8-4.9-8.8
				c-1-1.8-2.9-3.2-4.6-4.6c-1.2-1-2-2-1.9-3.5c0.1-2-0.9-3.3-2.4-4.4c-0.7-0.5-1.2-1.1-1.7-1.7c-2.4-2.7-5-5.2-6.9-8.4
				c-0.2-0.3-0.5-0.8-1-0.5c-0.5,0.2-0.4,0.8-0.3,1.2c1,2.4,0.8,5,0.8,7.5c0,0.8,0.1,1.5,0.7,2c3.3,2.6,2.8,6.1,2.5,9.8
				c-0.3,3.8-1.2,7.6-0.3,11.5c0.7,3.2,1.2,6.6-1.4,9.3c-1.4,1.5-1.7,3.1-1.6,5c0.1,2.4-0.6,4.4-2.3,6.1c-1.4,1.5-2.6,3.2-2.6,5.4
				c0,0.9-0.5,1.6-1.3,2.2c-3,2.6-5.8,5.2-6.2,9.5c-0.1,1.5-1.2,2.4-2.7,2.2c-2.2-0.2-3.7,0.8-5.1,2.4c-1.2,1.3-2.5,2.5-3.7,3.7
				c-0.7,0.7-1.4,1.3-2.4,1.3c-2.2,0-3.7,1.1-5,2.6c-1.2,1.4-2.6,1.9-4.4,1.8c-4-0.1-7.9-0.6-11.9,0.4c-1.5,0.4-3-0.3-4-1.3
				c-2.9-2.8-5.6-5.8-8.4-8.7c-1.9-2-3.8-3.9-5.9-5.7c-1.6-1.4-2.6-2.8-2.6-5c0-1.1,0.1-2.4-1.2-2.7c-1.2-0.3-2.1,0.4-2.7,1.4
				c-1.7,2.8-4.3,3.1-7.2,2.7c-3.5-0.5-7.1-0.5-10.6,0c-3.3,0.4-6.2,0.4-8.7-2.5c-2.9-3.4-6.2-6.4-9.4-9.5c-1.1-1.1-1.8-2.3-1.6-3.9
				c0.1-1.3-0.2-2.4-1.3-3c-2.5-1.5-2.9-3.8-2.6-6.4c0.3-2.5-0.4-4.6-2.4-6.2c-1.2-0.9-1.5-2.2-1.5-3.7c0-6.9,0-13.9,0-20.8
				c0-1.6,0.4-3.2,1.7-4.1c2.1-1.7,2.6-3.7,2.3-6.2c-0.2-1.5-0.1-3.1,1-4.3c1.4-1.4,2.8-2.8,4.2-4.1c0.7-0.7,2.5-1.3,1.8-2.2
				c-0.6-0.8-2,0.4-2.9,1.1c-0.2,0.1-0.3,0.3-0.5,0.5c-6,6-12.1,12.1-18.1,18.1c-1,1-1.5,2-1.5,3.5c0,2.7-1.3,4.1-4,4
				c-2.4-0.1-3.2,1.2-3.4,3.1c-0.2,2-1.1,3.4-2.4,4.7c-2.2,2.2-4.4,4.5-6.7,6.6c-2,1.9-3,4-2.8,6.8c0.2,2.3-0.8,4.2-2.4,5.9
				c-1.1,1.1-2.3,2.2-3.4,3.4c-0.9,1-1.8,2.1-1.5,3.5c0.4,1.7,0.5,3.4,0.2,5c-0.5,3.7-0.5,7,3.1,9.6c1.6,1.2,2.7,2.3,4.9,1.7
				c2.2-0.6,4.6-0.4,6,1.5c1.3,1.8,3,2.4,5,2.7c1.5,0.2,2.9,0.8,3.7,2c0.7,1.1,1.7,1.4,3,1.5c1.5,0.1,3.2,0.3,4.1,1.7
				c0.9,1.3,2,1.9,3.4,2.1c2.3,0.2,3.9,1.4,5.4,3c1.4,1.5,2.8,3,4.3,4.3c1.1,1,1.6,3.3,3.1,3c1.3-0.3,2.4-2,3.3-3.3
				c1.7-2.5,4-3.3,6.9-3.3c3.3,0.1,6.6,0.1,9.8,0c2.4-0.1,4.3,0.7,5.8,2.5c2.8,3.2,5.7,6.2,8.9,8.9c3.2,2.7,4,6.5,3.8,10.5
				c-0.1,2.6-2.2,4.3-4.8,4.3c-2.5,0-3.3-1-3.3-4.3c0-1.5-0.5-2.6-1.6-3.7c-3-3-6-6-9-9c-2.2-2.2-6.1-2.8-8.5-0.9
				c-2.8,2.2-5.2,4.9-7.6,7.5c-0.3,0.3-0.5,0.9-0.5,1.4c0,2.2-0.8,3.8-2.6,5.2c-1.7,1.3-1.6,2.3,0,3.9c1.1,1.1,1.8,2.4,2.1,4
				c0.4,1.8,1.1,3.4,2.3,4.8c2.5,3,5.4,5.5,8.1,8.2c3.6,3.6,7.8,2.6,11.6,1.7c2.6-0.6,5-2.4,7.6-3.6c3.1-1.3,5.4-4.3,8-6.6
				c0.3-0.2,0.5-0.6,0.2-1c-0.3-0.4-0.6-0.1-1,0c-0.8,0.3-1.3,0.9-1.9,1.5c-0.9,1-2,1.8-3.3,2c-2.3,0.4-4.1,1.4-5.9,3
				c-3.2,2.9-8.6,1.8-9.9-1.8c-1.5-4.5,0.9-8,5.6-8c0.5,0,1,0,1.5,0c1.8,0.2,3.3-0.4,4.7-1.7c2-1.9,4.5-3,7.4-2.7
				c1.8,0.2,3.2-0.3,4.5-1.7c1.8-1.9,6.1-2.5,8.5-1.4c1.6,0.7,2.2,2,2.4,3.6c0.4,3.2-0.9,5.6-3.3,7.6c-1.7,1.5-1.5,2.6,0.3,3.9
				c1.9,1.3,3.9,2.8,4.8,4.7c1.5,3.1,2.9,6.2,4.6,9.3c1.2,2.2,1.4,4.8,3.6,6.4c0.8,0.6,1,1.7,1,2.8c0,0.8-0.3,1.7,0.3,2.9
				c2-2.5,4.4-4.6,4-8.1c-0.4-4.1-1.1-8.3,2.8-11.4c0.8-0.6,1.4-1.8,0.4-2.7c-1.5-1.2-2.7-2.6-4-4c-0.6-0.7-1.6-0.8-2.4-0.5
				c-1.6,0.5-3.3,0.3-5,0.3c-2.1-0.1-3.4-1.4-3.8-3.3c-0.3-1.5-0.3-3.2,0.3-4.7c0.7-2.1,1.9-3.3,4.3-3.2c4.4,0.2,8.8,0.4,13.2,0
				c1.7-0.1,3.2,0.5,4.3,1.7c1.9,1.9,3.8,3.7,5.6,5.8c1.6,2,3.2,4.1,6.1,4.6c4.2,0.7,6.7,3.4,7.6,7.6c0.2,1.2,0.8,2.2,1.7,3
				c2.3,2,3.3,4.5,3.1,7.5c-0.2,3.1-2,4.5-4.9,3.6c-1.3-0.4-2.3-1.2-3.2-2.2c-3.6-4.4-7.8-8.2-11.5-12.4c-1-1.2-2.1-1.1-2.9,0
				c-0.8,1-1.7,2.4,0.1,3.2c3.2,1.5,3.5,4.3,3,7.2c-0.3,1.6,0,2.9,1,3.8c3.6,3.3,3.3,7.4,2.8,11.6c-0.2,1.7,0.1,2.8,1.2,3.9
				c1.1,1.1,2,2.4,2.1,4c0.1,3.3,0.3,6.6-0.1,9.8c-0.3,2.6,0.3,4.5,2.2,6.2c1.3,1.2,2.3,2.6,2.3,4.5c0,3.1,0,6.1,0,9.2
				c0,1.6-0.6,3-2,3.9c-1.5,1-2,2.3-2,4.1c0.1,2.6,0.3,5.3-0.1,7.9c-0.3,2,0.3,3.2,1.7,4.3c1.8,1.5,2.7,3.3,2.4,5.7
				c-0.1,0.8,0.1,1.6,0,2.4c-1.1,4.5,1.1,7.4,4.3,10c0.1,0,0.1,0.1,0.2,0.2c1.1,1.3,2.2,1.1,3.1-0.1c0.9-1.3,2.1-2.4,3.2-3.6
				c0.7-0.8,1.3-1.6,1.2-2.7c-0.1-1.5,0.6-2.6,1.6-3.6c2.8-2.9,5.6-5.9,8.4-8.8c0.9-1,1.6-2,1.7-3.5c-1.5,0-1.6,1.3-2.2,2
				c-2,2.5-4.7,2-7.2,1.8c-1.8-0.2-2.8-1.8-2.7-3.3c0.3-4.2-3-6-5.3-8.2c-2.5-2.4-3.6-5-2.4-8.4c0.6-1.7,1.7-2.5,3.4-2.5
				c2.6,0,5.2,0,7.9,0c0.8,0,1.6,0.1,2,0.6C275.7,308.7,281.1,311.4,281.5,317.9z M184.4,353.7c1,1.5,2.3,2.7,3.8,3.7
				c1.4,1,2.2,2.3,2.1,4.1c-0.1,1.9,0,3.8,0,5.7c-0.1,2.6-1.9,4.3-4.4,4.5c-1.5,0.1-2.9,0-4.4,0c-0.5,0-1.4-0.3-1.2,0.6
				c0.1,0.6,0.7,0.7,1.4,0.6c4.3-0.6,8.5-1.1,12.8-0.7c4,0.4,8,0.1,11.9-0.1c1.9-0.1,3.1-1,2.8-2.8c-0.8-4.8,1.2-8.1,4.8-10.9
				c0.6-0.4,1-1,1.6-1.5c1.1-1,1.4-2.2,1.6-3.7c0.9-5-0.7-8.8-4.8-11.7c-0.9-0.7-1.7-1.6-2.5-2.4c-0.9-0.9-2-1.6-3.3-1.6
				c-2,0-3.3-1-4.5-2.2c-5.1-5.1-10.3-10.3-15.4-15.4c-0.4-0.4-0.9-0.8-1.5-0.8c-3.5,0-5.5-2.4-7.8-4.5c-2.1-1.9-2.9-4-2.7-6.8
				c0.2-1.8,0.6-3.5,2.6-4.1c2.1-0.7,4.4-0.1,5.3,1.8c1.7,3.3,5.1,4.9,6.9,8.1c0.2,0.3,0.6,0.5,0.9,0.5c0.5-0.1,0.5-0.7,0.4-1.1
				c-0.8-3.5-0.3-7.1-0.4-10.7c0-1.8-0.6-2.4-2.4-2.4c-5,0.1-10.1,0-15.1,0c-3.2,0-8.7-4.7-9.2-7.9c-0.1-0.4-0.1-0.7,0-1.1
				c0.9-4.1-1-6.9-4-9.4c-1-0.8-1.8-2-2.8-2.7c-3.6-2.7-5.3-6.2-4.6-10.7c0.3-1.8-0.7-2.7-2.5-2.7c-2,0-3.6-0.6-4.9-2.3
				c-1.2-1.4-3-2.3-4.9-2c-2.1,0.3-4.2,0.2-6.3,0.3c-1.4,0.1-2.6-0.3-3.5-1.4c-1.4-1.7-3.1-2.2-5.2-2.1c-2.4,0.1-3.3-1-3.3-3.5
				c0-2.5,1.2-4.1,3.4-4.2c1.7,0,3.5,0,5.2,0.3c2.6,0.4,5.3,0.9,8,0.2c2.3-0.6,4.5,0.2,6.1,2c0.8,0.9,1.6,1.6,2.9,1.8
				c1.8,0.2,3.3,1.1,4.6,2.2c1,0.9,2.1,1.7,3.5,1.7c1.6,0,2.8,0.7,3.9,1.7c0.6,0.6,1.2,1.2,2,1.3c3.4,0.2,5.7,2.2,7.8,4.6
				c2.2,2.4,4.7,4.1,8.2,3.5c1.1-0.2,2.1,0.3,2.9,0.9c2.5,1.8,5,3.6,8.2,4.1c0.5,0.1,1.1,0.5,1.4,0.9c1.3,1.6,3,2.1,5.1,1.9
				c2.3-0.2,4.7-0.3,6.3,2c0.2,0.3,0.6,0.5,0.9,0.3c0.5-0.2,0.4-0.7,0.4-1.1c0-4-2.8-6.3-5.4-8.5c-2.8-2.5-3.7-5.4-3.1-8.8
				c0.3-1.6-0.1-2.7-1.1-3.7c-2.3-2.2-4.7-4.4-7-6.5c-0.5-0.5-1.2-0.7-2-0.7c-3.9,0.1-7.7,0.1-11.6,0.2c-1.5,0-2.8-0.5-3.7-1.6
				c-3-3.6-6.6-6.8-9.9-10.1c-1.3-1.3-2.2-2.7-2.5-4.5c-0.2-1.3-0.9-2.5-1.8-3.4c-1.1-1.1-2.1-2.2-3.3-3.2c-1.7-1.5-2.7-3.2-2.4-5.5
				c0.2-1.7-0.6-2.4-2.3-2.2c-2.2,0.2-3.9-0.7-5.4-2.3c-1.1-1.2-2.3-2.3-3.4-3.4c-1.2-1.2-2.6-2.1-4.4-2.2c-1.3-0.1-2.6-0.6-3.3-1.8
				c-0.8-1.4-2-1.7-3.5-1.7c-1.7,0.1-3.1-0.5-4.1-2c-0.6-1-1.7-1.7-2.7-1.7c-2.8,0.1-4.5-1.6-6.3-3.4c-1.5-1.6-3.4-1.5-5.3-0.8
				c-1.8,0.7-2,2.3-1.9,4c0,4.6,0.2,9.2,0.4,13.7c0.2,4.8-0.9,9.6-0.4,14.5c0.3,3.5-0.2,7.1-0.3,10.7c-0.3,8.4-0.1,16.8-0.1,25.1
				c0,1.9,0.5,3.6,2,4.9c1.6,1.3,2.2,3.1,2.3,5c0.1,1.8,0.2,3.7,0,5.5c-0.2,1.8,0.2,3.4,1.5,4.6c2.2,2,2.8,4.5,2.6,7.3
				c-0.1,1.2,0,2.5,0,3.7c-0.1,1.8,0.2,3.4,1.7,4.8c0.8,0.8,1.4,1.9,1.4,3.1c-0.1,1.7,0.7,2.9,1.9,4c1.3,1.2,2.3,2.6,2.1,4.6
				c-0.1,1.2,0.8,1.9,1.3,2.9c2.1,3.9,4.1,7.9,6.1,11.8c0.3,0.5,0.3,1.1,0.5,1.7c0.2,0.9,0.7,1.6,1.3,2.2
				c7.4,7.5,14.7,15.1,22.2,22.6c1.5,1.5,3,3.3,4.8,4c2.5,1,5.4,1,7,3.7c0.1,0.2,0.4,0.3,0.6,0.3c3.3-0.4,5.6,1.2,7.7,3.4
				c0.1,0.1,0.2,0.2,0.4,0.2c0.6,0.2,1.3,0.9,1.8,0.2c0.5-0.8-0.4-1.2-1-1.6c-3.5-2.5-3.8-6.5-0.5-9.5c1-0.9,1.9-1.9,2.7-2.8
				c0.8-0.8,1.6-1.4,2.7-1.8c0.7-0.3,2,0.3,2.1-0.6c0.1-0.9-0.9-1.8-1.7-2.4c-0.8-0.6-1.7-0.7-2.7-0.7c-1.9,0-3.3-0.8-4.4-2.3
				c-1.7-2.2-3.7-4.1-5.9-5.9c-1-0.8-1.7-1.7-2-3c-0.4-2.1-1-4.2-2.8-5.5c-4.5-3-5.8-7.2-5-12.4c0-0.3,0-0.6,0-0.9
				c0-2,0.8-3.5,2.8-4.1c2.7-0.9,6.1-0.5,7.2,1c0.4,0.5,0.7,1.2,0.7,1.8c0.1,1.4,0.2,3-0.1,4.3c-0.3,1.5,0,2.6,0.9,3.6
				c1.5,1.6,2.6,3.5,3,5.7c0.2,1,0.7,1.8,1.3,2.7c2,2.9,4.9,4.9,7.5,7.3c2.3,2.2,4.6,4.7,8.5,4c1-0.2,1.9,0.9,2.1,1.9
				c0.6,3.4-0.7,6-4.2,5.7C185.4,353.3,184.9,353.1,184.4,353.7z M431.9,82.5c-1.5-1.5-1.9-2.9-2.1-4.4c-0.2-1.4-0.8-2.4-2.1-3.1
				c-1.1-0.6-1.4-1.7-1.7-2.9c-0.3-1.7-0.4-3.5-1.8-4.8c-3.7-3.6-7.3-7.4-11-10.9c-1.8-1.7-3.5-3.8-6.4-3.5
				c-1.8,0.2-2.8-0.8-3.7-2.2c-1.6-2.5-3.8-4.4-6.5-5.5c-3.6-1.4-6.6-3.9-10.3-4.9c-0.7-0.2-1.3-0.9-1.9-1.4
				c-1.2-1.3-2.5-1.8-4.3-1.8c-6.7,0.1-13.4,0-20.1,0c-3.1,0-6.3,0.2-9.4-0.1c-1.7-0.2-3,0.2-4.1,1.4c-1.1,1.2-2.4,2.2-4.1,2.2
				c-2,0-3.4,0.9-4.8,2.3c-6.8,6.9-13.7,13.7-20.6,20.6c-0.6,0.6-1.3,1-1.4,1.9c-0.5,2.8-1.5,5.3-3.6,7.3c-0.5,0.5-0.7,1.5-0.7,2.2
				c-0.1,5.2-0.3,10.5-0.3,15.7c0,3.9,0.2,7.8,0.3,11.8c0.1,2.8,1.3,4,4.2,4.1c2.5,0.1,4.9,0,7.4,0.1c2,0.1,4-0.5,5.3-2.5
				c0.9-1.4,2.4-1.9,4.1-2.1c2.2-0.2,4.3,0.3,6.5,0.5c3.9,0.3,7.8-0.6,11.8-0.5c1.3,0,2.6-0.5,3.4-1.6c1.2-1.5,2.8-2,4.6-1.9
				c2.3,0.1,4.7-0.1,7,0c1.7,0.1,3.1-0.5,4.2-1.8c1.4-1.6,3.3-2.3,5.4-2.2c3.1,0.1,6.3-0.1,9.4,0.1c1.9,0.1,3.3-0.6,4.1-2.2
				c1.1-2,2.8-2.7,4.8-2.1c3.2,1,6.4,0.6,9.7,0.4c1.9-0.1,3.4-0.6,4.4-2.3c0.5-0.9,1.4-1.6,2.5-1.6c4.1-0.2,8.3-0.5,12.4-0.4
				c1.5,0.1,2.5-0.1,3.4-1.2C427.5,83.6,429.2,82.6,431.9,82.5z M266.6,26.6c-0.9,0.7-0.8,1.5-0.7,2c0.6,2.6,0.4,5.2,0,7.8
				c-0.2,1.2-0.2,2.6,0.1,3.7c0.9,2.9,0.7,5.8,0.7,8.7c0,2.4-2,4.1-4.5,4.1c-2.4,0-3.9-1.4-4.1-3.9c-0.1-1.8-0.3-3.6,0.2-5.4
				c0.3-1.1-0.1-1.9-1-2.4c-1.6-1.1-2.4-2.7-2.3-4.7c0-1.1-0.4-1.8-1.1-2.5c-3.9-3.3-7.2-7.2-10.7-10.7c-2-2-5-2.2-6.9,0
				c-1.9,2.1-4.1,2.9-6.8,2.6c-1.8-0.2-3.2,0.3-4.5,1.6c-1.2,1.1-2.7,1.8-4.5,2c-1.2,0.1-2.4,0.5-3.4,1.3c-2.3,2-4.6,4-6.7,6.2
				c-0.8,0.8-1.3,1.7-1.3,2.9c0,1.9-0.7,3.4-2.4,4.3c-1.1,0.7-0.9,1.1,0.1,1.8c2,1.3,3.9,2.7,5.3,4.7c1.2,1.7,2.9,2.8,5.2,2.4
				c1.1-0.2,2.1,0.4,2.7,1.4c0.7,1.1,1.6,2.1,3,2c2-0.1,3.3,0.8,4.5,2.2c1.4,1.5,3,3,4.4,4.5c0.7,0.7,1.4,1.3,2.4,1.2
				c2.4-0.2,4.3,0.2,5.2,2.8c0.1,0.4,0.7,0.9,0.9,0.9c4.1-0.7,6.6,2.5,9.9,3.9c0.9,0.4,1.8,0.6,2.6,1c0.6,0.3,1.1,0.6,1.5,1.2
				c0.9,1.6,2.4,2.3,4.2,2.1c1.6-0.2,3,0.4,4.1,1.6c1.1,1.2,2.5,1.9,4.3,1.9c1.2,0,2.2,0.5,2.9,1.6c0.8,1.3,2.1,1.9,3.6,2.3
				c4.3,1.2,7.9,3.9,11.9,5.6c1.4,0.6,2.4,2.3,3.6,3.5c0.4,0.4,0.7,0.7,1.1,1.1c0.7,0.6,1.5,1,2.4,0.8c3.5-0.8,6.8-0.8,9,2.8
				c0.8,1.3,1.7,0.7,2.2-0.5c0.5-1-0.2-1.8-0.2-2.8c0.3-9.9-0.8-19.9,0.8-29.9c0.2-1,0.1-2-0.8-2.8c-1.9-1.6-3.4-3.4-3.3-6.1
				c0-0.4-0.4-0.9-0.7-1.3c-1.3-1.5-2.6-2.9-3.9-4.4c-4.4-4.8-8.8-9.6-13.2-14.5c-0.9-1-1.8-1.5-3.2-1.5c-1.3,0.1-3,0.5-3.8-0.6
				C273.3,29.6,268.2,30.7,266.6,26.6z M208.6,156.8c0,4.5,0,9,0,13.6c0,1.4,0.4,2.5,1.3,3.6c4.5,5.4,9.7,10,14.6,15
				c2.3,2.3,6.3,2,8.2-0.6c0.6-0.9,1.3-1.9,2.3-1.8c4.4,0.2,6.4-3.4,8.8-5.9c1.4-1.5,2.9-2.5,4.8-2.5c2.1-0.1,2.9-1.2,2.9-3
				c0-1.5,0.5-2.8,1.5-3.8c1.9-2,3.8-4,6-5.8c1.6-1.3,3.4-2.9,3.5-5.1c0.1-3,0.5-5.9,0.5-8.9c0-8,0.1-16-0.4-24
				c-0.1-1.3-0.6-2.2-1.5-3c-1-0.9-2.1-1.9-2-3.5c0.1-1.9-0.6-3.4-2.1-4.6c-1.4-1.1-2.1-2.6-1.9-4.4c0.1-0.9,0-1.9-0.7-2.4
				c-1.7-1.3-2.9-3.1-4.4-4.5c-3.3-3-6.6-5.9-9.2-9.5c-0.6-0.9-1.2-0.9-1.6-0.1c-0.9,1.7-2.5,1.8-4.1,2.2c-2.6,0.6-6.9,4.9-7.1,7.6
				c-0.2,1.7-0.9,2.8-2.1,3.9c-2.6,2.6-5.8,4.8-6.1,8.9c0,0.6-0.5,1.3-1,1.6c-1.6,1-2,2.6-2.2,4.3c-0.2,1.7-0.9,2.9-2.1,3.9
				c-1.2,1.1-1.8,2.2-1.5,4c0.5,3.1,0.2,6.1-3,8c-1.1,0.7-1.4,1.7-1.3,3C208.6,147.6,208.6,152.2,208.6,156.8z M185.8,171
				c3.8,0.3,7.3,0.3,10-3.2c1.5-1.9,2.8-3.6,2.4-6.2c-0.1-0.7,0-1.5,0.1-2.2c0.8-7.1,0.4-14.2-0.4-21.3c-0.4-3.6-1-7.3,2.9-9.8
				c1-0.6,1.1-1.7,0.9-2.9c-0.3-3.4-0.5-6.7,3.2-8.8c1.4-0.8,1.1-2.2-0.2-3c-1.6-0.9-2.6-2.4-2.8-4c-0.4-3.8-2.9-6.2-5.6-8.3
				c-1.8-1.5-2.3-3.2-2.6-5.2c-0.1-0.8,0.3-1.8-0.6-2.2c-1-0.4-1.8,0.4-2.4,1.1c-1.4,1.6-3.1,2.6-5.3,2.6c-1.3,0-2.2,0.5-3.1,1.3
				c-2.2,2.3-4.5,4.6-6.8,6.8c-3.8,3.6-8.3,6.7-9.3,12.4c-0.1,0.8-0.7,1.6-1.3,2.2c-1.5,1.5-2.1,3.3-1.9,5.4
				c0.3,2.7-0.5,4.9-2.4,6.9c-1.5,1.6-1.7,5.1-0.2,6.5c2.3,2.1,2.9,4.6,2.6,7.5c-0.2,1.8,0.4,3.3,1.8,4.5c1.2,1,1.7,2.2,1.8,3.8
				c0,1.7,0.8,3.1,2,4.4c2.8,3,6.1,5.6,8.6,8.8c2.1,2.6,4.3,3,7.2,2.8C184.9,171,185.3,171,185.8,171z M252.5,90.8
				c3.2,3,6.4,6,9.5,9c1.5,1.4,3.1,2.3,5.2,2.2c1.1-0.1,2,0.8,2.7,1.7c4.4,5,9,9.7,14,14c1.3,1.1,2.2,2.5,2.1,4.3
				c-0.1,0.7-0.2,1.6,0.5,2c2.5,1.6,3.6,4.6,5.7,6.5c2.2,2.1,4.4,3.7,4.9,7.2c0.4,2.8,3,4.5,5.2,6.2c1.1,0.9,2.4,1.8,2.1,3.5
				c-0.2,1.8,0.7,3.1,2.1,4c2.8,1.8,3.2,4.4,2.5,7.3c-0.4,1.7,0.1,2.8,1.2,3.9c1.1,1.1,2.1,2.4,2,4c0,1.7,0.8,2.9,1.9,4
				c1.3,1.1,2.4,2.5,2.4,4.2c0.1,3.6,0.3,7.3-0.1,10.9c-0.2,1.9,0.3,3.1,1.7,4c1.4,0.9,1.8,2.1,1.9,3.7c0.7,10,0.4,20.1,0.4,30.1
				c0,2.4,0.1,4.8-0.4,7.2c-0.5,2.3-0.4,4.6-0.1,6.9c0.4,3.5,0.5,7-2.6,9.7c-0.6,0.5-1,1.5-1,2.3c-0.2,4.3-1.1,8.6-0.4,13
				c0.4,2.5,1.6,5.3,0,7.7c-2,2.9-4,5.8-4.6,9.4c0,0.1-0.1,0.3-0.2,0.4c-2,1.5-2.1,3.7-1.9,5.9c0.1,1.9-0.4,3.7-1.9,4.9
				c-1.8,1.5-2.7,3.4-3,5.6c-0.2,1.3-0.9,2.3-1.9,3.1c-3.5,2.6-5.6,5.7-5.1,10.4c0.2,2.1-0.8,3.6-2.5,5c-2.4,1.8-4.1,4.1-5.1,7.2
				c-1.2,3.7-3.9,6.7-5.2,10.5c-0.1,0.4-0.6,0.6-0.9,0.9c-2.7,2.7-6,4.9-6.5,9.2c-0.1,0.6-0.6,1.2-0.9,1.7c-2.2,3.1-5.2,5.5-7.8,8.2
				c-0.6,0.7-1.4,1.2-1.5,2.2c0.7,0.2,0.9-0.2,1.2-0.5c2.4-3.2,5.5-5.8,8.3-8.7c0.8-0.8,1.3-1.8,1.5-2.9c0.2-1.4,0.8-2.6,1.6-3.7
				c2.2-3,5-5.3,7.5-7.9c0.9-1,2-2,2.1-3.3c0.4-4.3,3.8-6.4,6.3-9.2c2.2-2.5,5.3-4.4,5.4-8.3c0-1,0.7-2.2,1.8-2.8
				c1.2-0.7,1.6-1.7,1.5-3.1c-0.1-1.2,0-2.3,0-3.5c-0.1-1.9,0.5-3.4,2.2-4.5c1.1-0.7,1.7-1.7,1.8-3.1c0.1-2,0.9-3.7,2.4-4.9
				c1.1-0.9,1.6-1.9,1.5-3.4c-0.1-1.8,0.5-3.3,2.1-4.3c0.8-0.5,1.7-1.3,1.6-2.2c-0.1-2.5,1-4.4,2.7-6.2c0.4-0.4,0.5-1.1,0.5-1.6
				c0.3-2.4,0.9-4.5,3-6c0.9-0.7,1-1.7,1-2.8c0-4.3-0.1-8.6,0-12.9c0.1-3.9,0.7-7.8,0-11.7c-0.5-2.6,0.6-4.7,2.6-6.4
				c1.1-0.9,1.4-1.9,1.4-3.3c0-14.1,0-28.3,0-42.4c0-1.6-0.5-2.6-1.8-3.4c-1.9-1.2-2.6-3-2.5-5.2c0.1-1,0.2-2,0.5-3
				c0.4-1.4-0.2-2.5-1.2-2.9c-2.6-1.1-3.1-3-2.9-5.5c0.1-1-0.1-2,0.3-3c0.4-1.1,0-2.1-1-2.6c-3.8-2-3.8-5.2-2.7-8.7
				c0.5-1.7,0.2-2.6-1.4-3.2c-2.2-0.8-2.8-2.7-2.4-4.8c0.2-1.2,0-1.9-1.1-2.4c-1.9-0.9-2.9-2.4-2.6-4.6c0.2-1.3-0.2-2.4-1.2-3.3
				c-3.5-3.3-6.8-6.7-10.2-10.1c-7.3-7.3-14.6-14.5-21.8-21.8c-1.3-1.3-2.5-2.1-4.4-1.9c-1.7,0.2-3-0.6-3.9-2
				c-0.9-1.5-2.1-2.1-3.8-2c-1.8,0.1-3.1-0.7-4.1-2.1C256.9,90.3,255.7,90,252.5,90.8z M327.7,357.3c-0.7,0-1.3,0-2,0
				c-2.8-0.2-5.3,0.1-7.2,2.5c-0.9,1.1-2.3,1.5-3.8,1.4c-1.3,0-2.6,0-3.9,0c-1.1,0-1.9,0.5-2.3,1.4c-0.4,1,0.5,1.4,1.1,1.8
				c0.3,0.3,0.6,0.6,0.9,0.9c2.2,3.4,5.3,5.7,8.3,8.3c1.5,1.3,3,2.3,5.2,2.1c2.7-0.2,3.2,0.4,3.1,3.2c-0.1,1.9,0.3,3.4,1.9,4.6
				c1.3,1,1.9,2.5,2,4c0.1,1.7,0.8,2.9,2,3.9c1.1,1,1.7,2.1,1.6,3.6c-0.1,1.4,0.6,2.6,1.7,3.6c1.6,1.5,3.2,3.2,4.8,4.8
				c0.8,0.8,1.4,1.7,1.4,2.9c-0.1,1.6,0.7,2.8,1.8,3.8c1.2,1.1,2.1,2.4,2.1,4.1c0,1.8,0.8,3,2.3,3.9c1.5,1,2.3,2.3,2.2,4.2
				c-0.2,2.3-0.7,4.6-0.5,6.9c0.1,1.4,0.6,2.5,1.7,3.4c0.7,0.5,1.3,0.6,1.5-0.5c0.3-1.6,1.1-2.8,2.5-3.6c1.3-0.8,1.6-2,1.2-3.6
				c-0.7-2.7-0.4-5.2,2.3-6.9c1.5-0.9,1.9-2.3,1.9-4.1c-0.1-7,0-14,0-21c0-4.9,0-4.9-4.9-5.1c-1.9-0.1-2.9-1.1-3-3
				c0-2-0.2-4,0.1-5.9c0.2-1.6-0.3-2.5-1.7-3.1c-1.1-0.5-2.1-1.2-1.9-2.6c0.4-2.9-0.9-4.8-3-6.6c-1.4-1.2-2.7-2.5-3.9-3.9
				c-1.1-1.3-2.4-1.8-4-1.6c-1.6,0.2-3-0.3-3.7-1.7c-1-2-2.6-2.5-4.7-2.3C329.8,357.3,328.7,357.3,327.7,357.3z M32.6,151.2
				C32.6,151.2,32.6,151.2,32.6,151.2c-3.2,0-6.4,0.2-9.6-0.1c-2-0.2-3.4,0.5-4.5,1.9c-0.9,1.1-2,2.2-3.4,2
				c-2.9-0.4-4.2,1.9-6.2,3.2c-0.5,0.3-0.6,0.9-0.1,1.3c2.1,1.5,3.6,4.2,6.8,3.6c4.1-0.7,8.3-0.5,12.4-0.4c3.4,0.1,6.8-0.5,10.2-0.4
				c2.6,0,3.7,1.5,3.7,4.3c0,2.8-1.2,4.3-3.7,4.3c-3.9-0.1-7.8,0.4-11.8-0.3c-1.3-0.2-3-0.6-3.7,1.1c-0.8,1.9-1.2,4,0.3,5.8
				c2.7,3.2,5.7,6.2,8.7,9.1c2.1,2.1,4.3,2.9,7.5,2.6c3.6-0.4,7.3,0.1,10.9,0.4c4.1,0.3,6.9-1.5,9.7-4c1.2-1.1,1.1-2.1,0.1-3.1
				c-1-1-2.1-1.8-3.1-2.7c-2.7-2.6-5.9-2.5-8.4,0.2c-1.2,1.3-2.4,2.7-3.6,4.1c-1.9,2.2-6.5,3.1-9,1.9c-0.9-0.4-1.4-1.1-1.5-2
				c-0.4-2.3-0.1-4.4,2-5.8c3-2.1,5.3-5,7.9-7.5c0.9-0.9,1.1-1.9,1.1-3.1c-0.1-4.6-0.2-9.2,0-13.8c0.1-1.7-0.4-2.4-2.1-2.4
				C39.6,151.2,36.1,151.2,32.6,151.2z M88,184.9c0.5-1,0.2-1.7,0.1-2.4c-0.5-4-2-8.3,1.9-11.6c0.3-0.2,0.5-0.6,0.2-1
				c-0.4-0.5-0.8-0.2-1.2,0.1c-1.4,1-1.5,2.5-1.7,4c-0.4,2.5-1.9,3.5-4.9,3.4c-2.3-0.1-3.1-1.1-3.2-3.7c-0.1-2.5,0.1-5,0.7-7.4
				c0.4-1.7-0.1-3-1.4-3.8c-1.9-1.2-2.6-2.9-2.3-5c0.2-2-0.7-2.7-2.6-2.4c-2.1,0.3-3.6-0.6-5-2.1c-2.3-2.5-4.9-4.8-6.9-7.6
				c-0.5-0.7-1.1-1.1-1.7-0.3c-1.6,2.2-3.7,3.9-5.6,5.8c-0.8,0.8-1.1,1.8-1.2,2.9c-0.5,4.6,1.1,9.3,0.1,13.9c-0.2,1,0.6,1.6,1.4,2
				c0.8,0.4,1.2-0.3,1.6-0.7c2.1-2.1,4.5-3.8,4.2-7.4c-0.2-1.7,1.4-2.9,3.2-2.9c1.9-0.1,4.1-0.6,5.1,1.9c1.2,3.1,0,7.3-2.6,9.4
				c-1.3,1-1.9,2.5-1.9,4c0.2,3.4,4.6,7.4,8.1,7.4c1.8,0,3.2,0.4,3.5,2.4c0.5,3.2-0.2,4.9-2.2,5.7c-2.2,0.9-4.4,0.4-6.6,0
				c-1.7-0.3-2.3,0.6-2.4,2c-0.2,1.6,0.9,1.7,2.1,1.7c3.4,0,6.9,0,10.3,0c2.6,0,3.5-1.1,2.8-3.6c-0.6-2.5-0.8-5-0.7-7.6
				c0.1-2.2,1.3-3.5,3.5-3.7c2.9-0.2,3.6,0.4,4.3,3C87.4,182.5,87,183.8,88,184.9z M240.4,355.5c0.4-0.3,0.6-0.4,0.8-0.6
				c2.1-2.9,5.1-2.4,8-2.1c0.8,0.1,1.5,0.7,1.9,1.6c0.8,2.3,0.1,4.6-2.1,6.3c-2.2,1.8-4.6,3.4-5.3,6.4c-0.6,2.8,2.2,7.5,4.9,8.5
				c1.1,0.4,1.9-0.2,2-1.1c0.4-2.9,1.3-5.4,3.6-7.4c0.3-0.3,0.4-0.8,0.5-1.2c0.5-2.2,1.3-4.3,3.4-5.6c0.9-0.6,1.5-1.7,0.4-2.6
				c-2.3-1.9-3.9-4.5-6.4-6.2c-1.2-0.9-2.3-1.8-3.1-3.1c-1.2-1.9-2.8-2.8-5.1-2.6c-2.7,0.1-3.9-0.7-4.1-2.5
				c-0.4-3.7,0.3-5.1,3.2-5.8c0.7-0.2,1.4-0.2,2.2-0.3c1.2-0.1,2.2-0.5,1.9-1.8c-0.2-1.1-0.9-1.8-2.4-1.6c-3,0.4-6.1,0.5-9.1-0.1
				c-1.8-0.3-3.6,1.4-3.2,3.3c0.5,2.3,0.3,4.6,0.2,7c0,1.8-0.8,3.5-2.2,4.6c-2,1.5-3.4,3.3-5,5.1c-1,1.1-0.7,2.1,0.5,2.7
				c1.4,0.7,2.9,1.4,4.6,0.6c1.7-0.8,1.4-2.4,1.5-3.8c0-0.3,0-0.6,0-0.9c0.5-2.3,1.3-3.6,5.2-3.3c2.2,0.2,2.9,1.1,3,3.6
				C240.1,353.5,239.9,354.4,240.4,355.5z M263.1,369.4c-2.1,1.3-3.3,2.6-3.4,4.3c-0.3,3.1-1.7,5.3-4.4,6.7c-1.2,0.6-2,2-2.5,3.2
				c-0.4,0.9,1.1,1.4,1.4,2.3c0.2,0.5,0.4,1.1,0.4,1.7c0.1,1.6,0.8,2.9,1.9,4c2.5,2.4,4.8,4.9,7.3,7.2c0.9,0.9,1.9,1.9,1.9,3.1
				c0.1,3.4,2.4,5.3,4.6,7.4c0.7,0.6,1.1,1.8,2.5,1.2c1.4-0.6,1.6-1.7,1.6-3c0-5.1-0.1-10.2,0-15.3c0.1-2.3-0.6-4-2.3-5.6
				c-2.7-2.5-6-4.7-6.1-9c0-0.2-0.1-0.5-0.2-0.6C263.6,375.1,262.4,372.8,263.1,369.4z M121.5,379.2c-0.4,2.4,0.9,3.9,2.8,5.5
				c2.4,2.1,5.4,3.9,5.3,7.7c0,0.8,0.4,1.7,1,2.4c0.4,0.4,0.9,0.9,1.5,0.7c0.6-0.2,0.4-0.9,0.4-1.4c0-3.9,0.1-7.7,0-11.6
				c-0.1-3,0.5-5.6,3.3-7.3c0.8-0.5,1.5-1.3,0.5-2.3c-2.1-2-4.2-3.9-6.2-6.1c-3.4-3.8-9.2-5.9-9.3-12.3c0-0.1-0.1-0.3-0.1-0.4
				c-0.2-0.5-0.5-0.9-1.1-0.9c-0.6,0-0.9,0.3-1.2,0.8c-0.4,0.7-0.4,1.4-0.4,2.1c0,2.8,0.1,5.7,0,8.5c-0.1,1.6,0.5,2.9,1.8,3.7
				c1.7,1.1,2.1,2.6,2.2,4.5C122.1,375,121.4,377,121.5,379.2z M162,269c-0.3,0.3-0.6,0.6-0.9,0.9c2.1,2.1,4.1,4.4,6.4,6.3
				c3.9,3.2,4.2,8.4,7,12.1c0,0,0,0.1,0,0.2c0.5,2.9,1.3,3.6,4.2,3.6c4.5-0.1,9-0.7,13.5-0.3c5,0.5,10-0.9,14.9,0.2
				c1.2,0.3,2.5-0.6,2.4-2.2c0-1.3-0.9-2-2-1.7c-3.9,1.3-7.8,0.4-11.7,0.4c-2.2,0-4.2-0.3-5.5-2.4c-0.5-0.8-1.4-1.1-2.3-1.2
				c-2.4-0.4-4.2-2.3-6.2-3.1c-3.4-1.4-6.4-3.4-9.8-4.6c-2-0.7-3.8-1.4-5.2-2.9C165.2,272.7,163.6,270.8,162,269z M162.4,376.2
				c1.1,2.4,2.6,3.7,5.1,3.5c1.9-0.2,3.2,0.5,4.1,2.2c0.4,0.7,1,1.7,2,1.5c2-0.4,4.1,0,6.1-0.4c2.3-0.5,4.7-0.5,6.1,1.7
				c1.3,2.1,2.7,2.7,5.2,2.6c7.3-0.3,14.7-0.1,22.1-0.1c0.7,0,1.4,0.3,2.2-0.3c-1-1.6-2.9-2-4-3.3c-1.9-2.1-3.9-2.9-7-2.8
				c-8.9,0.4-17.8,0.2-26.7,0.1c-2.5,0-4.9-0.6-6.5-2.9c-0.7-1-1.8-1.8-3-1.6C166.2,376.5,164.4,376.5,162.4,376.2z M378.9,441.2
				c-1.5,0-2.7-0.1-3.8,0c-2.8,0.3-5-0.4-6.3-3.1c-0.7-1.4-2.1-1.4-3.4-1.2c-2.6,0.4-5.3,1.1-8,0.7c-1.6-0.2-2.7-0.3-3.2,1.6
				c-0.3,1.3-1.6,1.8-2.9,1.9c-0.7,0.1-1.5-0.3-2.1,0.5c1.1,1.3,2.1,2.8,4,2.7c2.1-0.1,3.5,0.9,4.8,2.4c1.9,2.1,4.7,2.3,6.6,0.3
				c2.1-2.3,4.6-3.5,7.7-3.1C375,444.4,377,443.4,378.9,441.2z M236.4,259.7c-0.2,0-0.5,0.1-0.7,0.1c0,1.2-0.1,2.4,0,3.6
				c0.2,2.4-0.4,4.4-2.5,5.9c-1.1,0.8-1.6,1.8-1.2,3.4c0.4,1.3,0.5,3,0,4.3c-0.8,2.7,0.4,3.9,2.7,4.7c1.2,0.4,2.3,1.2,2.1,2.4
				c-0.5,3,1.3,4.6,3.4,6c0.5,0.3,0.8,0.9,1.5,0.6c0.7-0.4,0.5-1.1,0.4-1.7c-0.4-1.9-0.6-3.8,0.1-5.6c0.6-1.5,0.3-2.4-0.8-3.4
				c-1.6-1.4-2.3-3.2-2.2-5.4c0.1-1.5-0.2-3.1,0.1-4.6C240.2,265.9,236.1,263.5,236.4,259.7z M110.8,321.1c-0.5,2.2-0.3,4,1.5,5.5
				c1.4,1.1,2.5,2.4,3.7,3.7c1.2,1.2,2,2.5,2,4.2c0.1,1.6,0.8,3,2.2,3.8c1.3,0.8,1.8,2,1.8,3.5c-0.1,1.2,0.3,2.4,1.3,3.1
				c2.4,1.5,4.2,3.7,5.8,5.8c4.9,5.9,10.7,10.9,15.9,16.4c0.6,0.7,1.6,1.2,2.5,1.2c2.2-0.1,3.7,1.1,5,2.6c1.2,1.3,2.5,2.4,3.7,3.7
				c1.3,1.5,2.8,1.5,4.5,0.9c-1-2.3-2.5-3.6-5-3.4c-1.1,0.1-2-0.5-2.7-1.2c-2.6-2.5-5.3-5-7.9-7.5c-6.7-6.4-13.2-13-19.6-19.6
				c-1.6-1.6-3.9-3.1-4.1-5.2c-0.4-3.9-2.9-6.1-5.3-8.4c-1.1-1.1-1.9-2.2-2.1-3.9C113.9,324.1,113,322.3,110.8,321.1z M224.9,324.9
				c0-1-0.4-2.2-1.7-2.5c-1.9-0.4-4.2-0.6-5.5,1.1c-2.7,3.3-6.2,3.5-9.9,3.1c-0.4,0-0.9-0.4-1.2,0.1c-0.3,0.6,0.2,0.9,0.6,1.3
				c1.2,1.2,2.5,2.4,4.2,2.5c3,0.2,4.8,2.1,6.7,4c1.6,1.8,3.6,3.2,4.9,5.3c0.2,0.3,0.7,0.8,1,0.7c0.7-0.1,0.4-0.8,0.4-1.3
				C224.6,334.5,224.1,329.8,224.9,324.9z M224.5,366.4c-0.1-0.3-0.1-0.9-0.4-1.1c-1.2-1.1-2.6-1.1-4.3-0.7
				c-1.5,0.4-2.3,1.2-2.5,2.6c-0.2,2.2,0.1,4.5-0.4,6.7c-0.2,0.6,0.3,1.1,0.7,1.5c2.4,2.6,4.8,5.2,7.3,7.7c0.3,0.4,0.8,0.7,1.2,0.8
				c0.4,0.2,0.9,0.2,1.1-0.3c0.2-0.4-0.1-0.7-0.4-0.9c-2.5-1.7-2.9-4.4-2.9-7.1C224.1,372.6,223.7,369.5,224.5,366.4z M50.6,205
				c0.7,0.2,1.2-0.2,1.7-0.7c1.4-1.4,2.8-2.8,4.2-4.2c0.5-0.5,1.1-1.1,0.7-1.9c-0.3-0.7-1-1-1.8-1.1c-2.3-0.2-4.5-0.2-6.3,1.9
				c-2,2.4-5.2,2.6-6.7,0.6c-1.5-2.1-3.4-2.7-5.7-2.9c-0.5,0-1.1-0.3-1.4,0.2c-0.3,0.6,0.3,0.9,0.7,1.2c2.2,1.9,4.4,3.7,6.1,6.1
				c0.5,0.6,1.2,0.9,1.9,0.7C46.3,204.5,48.4,204.6,50.6,205z M213.2,94.4c-2,0-3.9,0-5.9,0c-0.4,0-0.9,0.1-1.1,0.6
				c-0.2,0.5,0.2,0.9,0.6,1.1c0.9,0.5,1.7,1.3,1.6,2.2c-0.4,3,1.7,4.6,3.2,6.6c0.3,0.4,0.6,1,1.2,0.8c0.8-0.1,0.7-0.9,0.7-1.4
				c-0.3-2.2,0.7-3.8,2.3-5.1c1.2-1,2-2.3,3.4-3c0.4-0.2,0.7-0.6,0.6-1.1c-0.2-0.5-0.6-0.5-1.1-0.6
				C216.9,94.4,215.1,94.4,213.2,94.4z M235.9,365.7c-1.5,0.9-1.7,1.1-2.7,3.1c-1.7,3.2-1.5,4.8,0.9,7.5c0.8,0.9,1.3,2,1.7,3.2
				c0.3,1.1,0.2,2.3,0.9,3.3c2.5,3.3,5.6,5.9,8.5,8.8c0.3,0.3,0.6,0.5,1,0.1c0.3-0.3,0.1-0.7-0.1-1c-0.8-0.8-1.5-1.6-1.8-2.7
				c-0.8-2.8-2.4-5-4.6-6.9c-1-0.9-1.7-1.9-2.6-2.9c-1-1.2-1.5-2.6-1.6-4.2C235.3,371.2,235.6,368.5,235.9,365.7z M230.5,86.3
				c-1.6-1.2-2.7-3.1-5.1-2.9c-7,0.7-14,0.7-21-0.2c-1.1-0.1-1.8,0-2.4,0.8c-0.4,0.5-0.5,1-0.1,1.6c0.6,1,1.6,1.1,2.5,0.8
				c2.8-0.7,5.6-0.4,8.5-0.4C218.7,86.3,224.5,85.8,230.5,86.3z M304.9,33.7c1.3,1.4,3.1,1.8,4.6,2.7c1.7,1.1,2.2,3,3.3,4.2
				c1.1,1.2,2.8-0.6,4-1.6c0.7-0.5,2.2-1.3,1.3-2.3c-1.6-1.7-3.1-3.8-6.2-3.3c-1.5,0.3-3.2,0.2-4.7-0.3
				C306.5,33,305.6,32.8,304.9,33.7z M147.1,421.6c-1.4-1.7-2.8-2.5-4.1-3.4c-1.5-1-2.4-2.2-2.5-4c-0.2-2.1-0.8-4.1-2.9-5.4
				c-1,4.1,1.5,8.5-1.7,12.3C139.6,420.4,143.1,421.1,147.1,421.6z M239.7,304c0,0.5,0,1,0,1.5c0.2,1.9,1.3,2.4,2.8,1.2
				c1.4-1.2,2.8-2.6,4-4c0.7-0.8,1.1-1.8-0.2-2.6C243.1,298.4,239.6,300.4,239.7,304z M200.8,315.8c0-2.1,0.1-4,0-5.8
				c-0.3-3.5,0.4-6.4,4.1-7.7c0.4-0.1,0.9-0.5,0.8-0.9c-0.1-0.6-0.7-0.4-1.1-0.4c-1.2,0-2.5,0-3.7,0c-0.9,0-1.5,0.4-1.5,1.4
				c-0.1,3.5-0.3,7.1-0.4,10.6C198.9,314,199.3,315,200.8,315.8z M209.2,317.2c2-0.8,3.1-1.9,4.5-2.3c3.4-1.1,3.5-1.4,3.3-4.8
				c-0.1-1.3-0.3-2.8-1.7-2.9c-1.3-0.1-1.9,1.2-2,2.4c-0.2,2.6-1.4,4.6-3.4,6.3C209.7,316,209.6,316.3,209.2,317.2z M323.1,45.9
				c-0.2-0.2-0.4-0.5-0.6-0.7c-1.7-0.2-7.4,4.4-7.5,6.2c0,0.4,0.1,0.7,0.4,0.9c0.4,0.2,0.6,0,0.9-0.2
				C318.6,49.9,320.8,47.9,323.1,45.9z"/>
			<path d="M198.7,7.9c2.6,0,4.3-0.1,6.1,0c2.6,0.2,3.8,1.4,3.8,4c0.1,3-0.1,6.1,0.4,9.1c0.3,1.6,0.3,3.5-1.7,4.2
				c-1.9,0.7-3.9,0.8-5.4-1.1c-0.4-0.5-0.9-0.9-1.4-1.4c-0.7-0.7-1.3-0.7-2,0c-2.7,2.7-5.4,5.4-8,8c-0.9,0.9-0.8,2.1-0.6,3.1
				c0.7,4.3-1.3,7.2-4.4,9.8c-1.3,1.1-2.6,1.5-4.2,0.8c-1.6-0.7-2.2-1.8-2.2-3.6c0-3.6,0.7-7.2,0.5-10.9c-0.1-1.2,0.6-2.3,1.7-2.9
				c1.3-0.8,1.9-2,1.8-3.5c-0.1-1.7,0.6-2.9,1.9-4c1.4-1.1,2.2-2.5,2.1-4.3c-0.1-1.1,0.4-2,1.1-2.7c0.1-0.1,0.2-0.2,0.3-0.3
				C191.1,8.6,194.7,6.8,198.7,7.9z"/>
			<path d="M144.7,161.8c0,0.9,0,1.4,0,2c-0.5,7-2.6,7-8.3,6.7c-1.4-0.1-2.4-1.1-3-2.3c-0.6-1.1-1.4-1.5-2.6-1.6
				c-5.4-0.3-9.3-5.8-9-11.2c0.3-4.4,2.1-7.6,5.1-10.4c3-2.8,6.7-2.5,9.2,0.7c0.8,1,1.8,1.9,2.7,2.8c1.3,1.1,2,2.5,1.8,4.2
				c-0.1,1.1,0.2,2.1,1.2,2.7C144.5,157,145,159.4,144.7,161.8z"/>
			<path d="M291.4,250.6c3,0,6,0,9,0c2.6,0,3.6,1,3.5,3.5c-0.2,3.7,0.5,7.4,0,11c-0.3,2.6-1.8,4-4.5,4.1c-1.5,0-2.9-0.1-4.4,0
				c-2.3,0.2-4.2-0.3-5.6-2.2c-0.8-1-2.1-1.5-3.2-1.7c-3.7-0.5-5.6-3.6-7.8-5.9c-1.5-1.7-1.1-4.6-0.2-6.9c0.8-2,2.9-2.1,4.9-2.1
				C285.9,250.7,288.7,250.6,291.4,250.6z"/>
			<path d="M304.8,183.6c-0.5,2.1-0.1,4.8,0,7.4c0.2,5-3.2,6.5-7.2,6c-3.9-0.5-7.8-0.6-11.7,0.2c-1.3,0.3-2.6,0.3-3.9,0.3
				c-2.9,0-4.2-1.3-4.2-4c0-2.7,1.3-4.1,4.1-4.1c3.5,0,5.4-2.5,7.6-4.6c0.4-0.3,0.6-1,1-1.1c3.4-1.2,6.1-3.7,9.3-5.3
				C303.1,176.7,304.8,178.5,304.8,183.6z"/>
			<path d="M123.9,296.1c4.3,0.8,8.7,0.1,13,0c1.3,0,2.9-0.2,3.2,1.5c0.3,1.8,0.7,3.8-1,5.3c-1.5,1.3-2.9,2.6-4.5,3.8
				c-1.6,1.2-1.9,2.9-2.1,4.6c-0.2,2.1-1.1,3.5-3.2,3.8c-2.4,0.3-5,0.7-6.8-1.7c-0.9-1.2-1.9-2.4-2.9-3.5c-2.2-2.4-2.7-9.3-1.1-12.2
				c1-1.8,2.8-1.4,4.5-1.5C123.3,296.1,123.6,296.1,123.9,296.1z"/>
			<path d="M123.5,235.2c-3.7-0.9-7.4,0-11,0c-4,0-6.2-2.4-5.6-6.3c0.2-1.6,0.3-3.2,0.4-4.8c0.1-2.3,1.5-4.2,3.4-4.5
				c3.3-0.6,5.4,0.2,6.5,2.5c0.4,0.8,0.6,1.9,1.7,1.8c4.1-0.4,6.5,2.5,9.3,4.5c0.8,0.5,1.1,1.3,1.3,2.2c0.4,2.7-1.1,4.5-3.9,4.6
				C124.9,235.2,124.2,235.2,123.5,235.2z"/>
			<path d="M228,165c0-3.8-0.1-6.6,0.4-9.4c0.2-1,0.5-1.8,1.2-2.5c1.4-1.4,2.7-2.8,4.2-4.2c1.1-1,2.4-1.6,3.9-1.6c1.5,0,2.9,0,4.4,0
				c1.7-0.1,3.1,0.6,4.3,1.8c0.9,0.9,1.7,1.8,2.6,2.6c1.8,1.7,2.5,3.8,1.9,6.1c-0.7,2.8-0.3,5.5,0.3,8.2c0.6,3.2-0.3,5.6-2.3,8.1
				c-3.4,4.4-7.9,4.4-12.6,4c-1.1-0.1-2.1-0.5-2.9-1.4c0-0.1-0.1-0.1-0.2-0.2C229.1,173.5,226.7,169.6,228,165z M240.2,156.1
				c-3.6,2.6-5,6.5-3.6,9.4c0.4,0.8,0.9,1.7,1.9,1.5c1-0.2,1.7-1,1.7-2C240.2,162.1,240.2,159.3,240.2,156.1z"/>
			<path d="M186.3,166.8c-5.2,1.6-7.5-2.5-10.4-5.2c-1.1-1-1.2-2.8-1.2-4.3c0-4.2,0-8.4,0-12.6c0-1.9,0.7-3.2,2.2-4.2
				c0.5-0.4,1.1-0.8,1.5-1.3c1.1-1.3,1.9-3.1,3.7-3.1c3.4,0,6.9-0.9,10.1,0.7c3.8,1.9,6,6.7,5.3,11c-0.4,2.2-0.4,4.5,0.1,6.7
				c1.1,4.9-1.6,8.5-5.3,11.6C190.4,167.5,188.2,166.8,186.3,166.8z M186.8,147.7C186.8,147.7,186.8,147.7,186.8,147.7
				c0-0.7,0.1-1.3,0-2c-0.2-0.9-0.8-1.7-1.7-1.8c-0.9,0-1.6,0.8-1.8,1.7c-0.3,1.1-0.4,2.3-0.5,3.4c0,1.2,0.5,2.5,1.8,2.6
				c1.4,0.2,1.9-1.1,2.2-2.3C186.9,148.8,186.8,148.2,186.8,147.7z"/>
		</g>
	</g>
</g>
</svg>
