<?xml version="1.0" encoding="utf-8"?>
<!-- Generator: Adobe Illustrator 25.2.3, SVG Export Plug-In . SVG Version: 6.00 Build 0)  -->
<svg version="1.1" id="Capa_1" xmlns="http://www.w3.org/2000/svg" xmlns:xlink="http://www.w3.org/1999/xlink" x="0px" y="0px"
	 viewBox="0 0 600 117.6" style="enable-background:new 0 0 600 117.6;" xml:space="preserve">
<style type="text/css">
	.st0{fill:#FF0000;}
</style>
<g>
	<polygon class="st0" points="243.4,115.7 299.8,115.7 299.8,100 259.2,100 259.2,83.8 292.1,83.8 292.1,68.1 259.2,68.1 
		259.2,51.9 299.8,51.9 299.8,36.3 243.4,36.3 	"/>
	<polygon class="st0" points="280.6,26.6 290.8,12.8 282.2,0 271.6,14.4 260.9,0 252.4,12.8 262.6,26.6 	"/>
	<rect x="437.7" y="36.3" class="st0" width="16.1" height="79.4"/>
	<polygon class="st0" points="363.1,52.4 388.1,52.4 388.1,115.7 404.4,115.7 404.4,52.4 429.4,52.4 429.4,36.3 363.1,36.3 	"/>
	<path class="st0" d="M571.7,36.3h-17.1l-28.1,79.4h16.7l6-16.8h28.2l5.9,16.8H600L571.7,36.3z M554.5,83.2l8.6-24.1l8.5,24.1H554.5
		z"/>
	<path class="st0" d="M113.3,35.2c-22.6,0-41,18.4-41,41c0,22.6,18.4,41,41,41s41-18.4,41-41C154.3,53.6,135.9,35.2,113.3,35.2z
		 M113.3,100.6C99.9,100.6,89,89.6,89,76.2c0-13.4,10.9-24.3,24.3-24.3c13.4,0,24.3,10.9,24.3,24.3
		C137.6,89.6,126.7,100.6,113.3,100.6z"/>
	<path class="st0" d="M28.4,36.2H0v79.4h28.4c21.9,0,39.7-17.8,39.7-39.7C68.1,54,50.3,36.2,28.4,36.2z M28.6,99.3H16.1V52.5h12.5
		C41.5,52.5,52,63,52,75.9C52,88.8,41.5,99.3,28.6,99.3z"/>
	<polygon class="st0" points="197.7,73.6 177.5,36.3 159.3,36.3 159.3,115.7 175.5,115.7 175.5,65.5 197.7,106.5 219.9,65.5 
		219.9,115.7 236.1,115.7 236.1,36.3 217.9,36.3 	"/>
	<polygon class="st0" points="525.3,36.3 505.8,36.3 479.4,71.4 479.4,36.3 463.5,36.3 463.5,115.7 479.4,115.7 479.4,98.5 
		487.3,87.8 506,115.7 525.6,115.7 497.5,73.9 	"/>
	<path class="st0" d="M348,73.3c-6.1-3.3-11-4.6-15.2-5.6c-4-0.9-7.1-1.7-9.5-3.8c-1.3-1.2-3.8-5.6-0.7-9.6c1.9-2.4,5.4-3.9,9.3-3.9
		c3.6,0,7.1,1.3,9,3.4c2.5,2.8,3.6,5.1,3.7,5.1l0.4,0.9l14.9-6.2l-0.1-0.2c-0.5-1.5-2.3-7.1-8.5-12.4c-4.9-4.1-11.8-6.6-19.1-6.6
		c-9-0.1-17,3.3-21.8,9.1c-5.1,6.1-7,13.3-5.4,20.3c1.6,6.9,6.4,12.7,13.3,15.9c5.3,2.5,8.6,3.3,11.8,4.2c2.6,0.7,5.1,1.3,8.7,2.8
		c3.7,1.5,5.6,4.2,5,7.3c-0.8,4.4-5.5,7.3-9.6,7.5c-0.5,0-1.1,0-1.6,0c-4.9,0-11.4-1.5-14.8-9l-15,6.2c1.1,2.6,3.8,8.6,10.5,13.1
		c5.2,3.5,12.1,5.5,19,5.6c11.8,0.1,21.6-5.4,26-14.7C363.7,91.8,359.7,79.7,348,73.3z"/>
</g>
</svg>
