<?xml version="1.0" encoding="utf-8"?>
<!-- Generator: Adobe Illustrator 25.2.3, SVG Export Plug-In . SVG Version: 6.00 Build 0)  -->
<svg version="1.1" id="Capa_1" xmlns="http://www.w3.org/2000/svg" xmlns:xlink="http://www.w3.org/1999/xlink" x="0px" y="0px"
	 viewBox="0 0 570.1 117.6" style="enable-background:new 0 0 570.1 117.6;" xml:space="preserve">
<style type="text/css">
	.st0{fill:#FF0000;}
</style>
<g>
	<g>
		<polygon points="289.1,72.9 270,3.5 225.8,3.5 223.2,3.5 124.6,3.5 124.6,30.9 157.8,30.9 157.8,114.9 189.6,114.9 189.6,30.9 
			223.2,30.9 223.2,114.9 251.9,114.9 251.9,38.5 274.5,114.9 303.2,114.9 324.9,38 324.9,114.9 354,114.9 354,3.5 307.6,3.5 		"/>
		<path d="M515.8,51.3v24.3h23.9l0,0c0,6.2-6.6,14.1-20.3,14.1C503,89.7,495,76.9,495,58.3c0-19,8.8-30.5,23.9-30.5
			c11.9,0,18.1,4.9,19.9,11h31.4c-6.2-26.5-27-38-52.2-38c-28.7,0-48.2,15-54.8,39.8c-7.1-27.8-31.8-37.1-61.9-37.1h-38.5v111.4
			h38.5c30.1,0,54.8-9.3,61.9-37.6c6.2,24.3,24.3,39.3,49.9,39.3c13.7,0,25.2-4.4,31.8-13.7v11.9h25.2V51.3H515.8z M402.6,88.8H396
			V29.6h6.6c17.7,0,30.1,4.4,30.1,29.6S419.9,88.8,402.6,88.8z"/>
		<circle cx="58.8" cy="58.8" r="58.8"/>
	</g>
	<circle class="st0" cx="58.8" cy="58.8" r="35.8"/>
</g>
</svg>
