<?xml version="1.0" encoding="utf-8"?>
<!-- Generator: Adobe Illustrator 24.0.2, SVG Export Plug-In . SVG Version: 6.00 Build 0)  -->
<svg version="1.1" id="Capa_1" xmlns="http://www.w3.org/2000/svg" xmlns:xlink="http://www.w3.org/1999/xlink" x="0px" y="0px"
	 viewBox="0 0 70 70" style="enable-background:new 0 0 70 70;" xml:space="preserve">
<g>
	<path d="M35,11.47c12.97,0,23.53,10.55,23.53,23.53S47.97,58.53,35,58.53S11.47,47.97,11.47,35S22.03,11.47,35,11.47 M35,4.3
		C18.04,4.3,4.3,18.04,4.3,35S18.04,65.7,35,65.7c16.96,0,30.7-13.75,30.7-30.7S51.96,4.3,35,4.3L35,4.3z"/>
	<path d="M31.9,52.36c-1.15,0-2.24-0.55-2.92-1.5l-7.93-11.11c-1.15-1.61-0.78-3.85,0.83-5c1.61-1.15,3.85-0.78,5,0.83l4.44,6.22
		l11.11-22.64c0.87-1.78,3.02-2.51,4.8-1.64c1.78,0.87,2.51,3.02,1.64,4.8L35.13,50.35c-0.56,1.13-1.67,1.89-2.93,1.99
		C32.1,52.36,32,52.36,31.9,52.36z"/>
</g>
</svg>
